<svg width="879" height="682" viewBox="0 0 879 682" fill="none" xmlns="http://www.w3.org/2000/svg">
<rect y="177.025" width="851.63" height="220" rx="110" transform="rotate(-11.9973 0 177.025)" fill="black" fill-opacity="0.9"/>
<path d="M106.403 276.989L146.171 268.538L114.987 217.972L114.658 218.042L106.403 276.989ZM103.438 205.655L120.693 201.989L191.475 309.578L174.22 313.244L153.894 280.637L104.267 291.183L98.6283 329.308L82.6882 332.696L103.438 205.655ZM177.952 189.821L194.549 186.294L276.557 268.311L276.886 268.241L256.666 173.093L271.456 169.951L296.39 287.282L279.299 290.914L197.994 209.779L197.665 209.848L217.675 304.01L202.886 307.153L177.952 189.821ZM334.462 265.452L360.426 259.934C362.179 259.562 364.347 258.987 366.929 258.209C369.489 257.321 372.143 256.07 374.891 254.456C377.616 252.732 380.193 250.581 382.623 248.004C385.162 245.403 387.221 242.16 388.799 238.275C390.378 234.39 391.344 229.777 391.698 224.434C392.137 218.959 391.589 212.607 390.052 205.376C388.562 198.365 386.523 192.272 383.935 187.096C381.433 181.789 378.186 177.555 374.194 174.396C370.288 171.104 365.661 168.996 360.312 168.071C354.94 167.037 348.639 167.289 341.408 168.825L315.115 174.413L334.462 265.452ZM296.71 164.584L336.971 156.028C355.047 152.187 369.938 153.831 381.644 160.962C393.35 168.092 401.205 181.079 405.21 199.922C407.305 209.782 408.072 218.779 407.51 226.914C406.926 234.938 404.892 242.069 401.408 248.305C397.901 254.432 392.878 259.622 386.339 263.874C379.8 268.126 371.655 271.288 361.905 273.36L321.644 281.916L296.71 164.584ZM412.415 139.996L467.63 128.262C478.805 125.887 488.096 126.775 495.505 130.926C503.023 135.053 507.795 141.883 509.82 151.414C511.334 158.535 511.017 165.129 508.872 171.195C506.835 177.238 502.466 182.003 495.764 185.488L495.834 185.817C499.37 185.752 502.342 186.266 504.749 187.357C507.266 188.425 509.36 189.927 511.031 191.862C512.788 193.664 514.219 195.821 515.326 198.334C516.542 200.824 517.617 203.458 518.551 206.237C519.375 209.038 520.157 211.907 520.895 214.841C521.633 217.776 522.524 220.621 523.567 223.376C524.611 226.131 525.795 228.742 527.121 231.209C528.533 233.542 530.27 235.52 532.332 237.143L514.913 240.845C513.562 239.872 512.446 238.392 511.565 236.404C510.794 234.392 510.086 232.138 509.441 229.641C508.773 227.035 508.069 224.265 507.331 221.33C506.593 218.396 505.648 215.562 504.494 212.83C503.451 210.075 502.333 207.507 501.14 205.127C499.924 202.638 498.406 200.613 496.586 199.053C494.743 197.384 492.554 196.246 490.021 195.639C487.464 194.923 484.269 194.973 480.434 195.787L442.31 203.889L452.961 254.01L437.349 257.328L412.415 139.996ZM472.053 183.828C475.669 183.06 479.061 182.053 482.232 180.807C485.402 179.56 488.029 177.914 490.113 175.868C492.284 173.69 493.802 171.134 494.667 168.202C495.619 165.138 495.641 161.469 494.733 157.196C493.476 151.28 490.808 146.809 486.73 143.783C482.652 140.756 476.943 140.023 469.602 141.583L430.82 149.824L439.516 190.743L472.053 183.828ZM546.416 172.835C547.673 178.751 549.686 184.449 552.453 189.929C555.198 195.3 558.702 199.937 562.967 203.84C567.231 207.743 572.24 210.571 577.995 212.325C583.726 213.97 590.152 214.036 597.273 212.522C604.394 211.009 610.238 208.336 614.805 204.503C619.348 200.56 622.775 195.939 625.084 190.639C627.392 185.34 628.708 179.678 629.031 173.656C629.331 167.524 628.853 161.499 627.595 155.584C626.338 149.668 624.338 144.024 621.593 138.653C618.826 133.173 615.31 128.481 611.045 124.579C606.781 120.676 601.783 117.902 596.052 116.257C590.298 114.503 583.86 114.383 576.739 115.896C569.618 117.409 563.786 120.137 559.242 124.08C554.675 127.913 551.237 132.479 548.928 137.779C546.619 143.079 545.315 148.794 545.015 154.927C544.692 160.949 545.159 166.919 546.416 172.835ZM530.805 176.152C529.105 168.155 528.626 160.242 529.367 152.413C530.194 144.451 532.358 137.121 535.858 130.423C539.358 123.725 544.253 117.933 550.543 113.047C556.832 108.161 564.633 104.728 573.945 102.75C583.257 100.771 591.78 100.734 599.513 102.64C607.246 104.547 614.073 107.848 619.995 112.543C625.916 117.239 630.819 123.067 634.703 130.028C638.673 136.856 641.507 144.269 643.207 152.266C644.906 160.263 645.343 168.243 644.516 176.205C643.775 184.034 641.654 191.297 638.154 197.995C634.654 204.693 629.759 210.485 623.469 215.371C617.156 220.148 609.344 223.525 600.032 225.504C590.72 227.483 582.209 227.574 574.499 225.778C566.766 223.872 559.938 220.571 554.017 215.875C548.095 211.179 543.15 205.417 539.18 198.589C535.296 191.629 532.504 184.15 530.805 176.152ZM650.421 89.4176L666.032 86.1001L690.966 203.432L675.355 206.75L650.421 89.4176ZM730.042 181.388L756.006 175.87C757.759 175.498 759.927 174.923 762.51 174.145C765.069 173.258 767.723 172.007 770.472 170.392C773.197 168.668 775.774 166.517 778.203 163.94C780.742 161.339 782.801 158.097 784.38 154.211C785.959 150.326 786.925 145.713 787.278 140.371C787.718 134.896 787.169 128.543 785.633 121.312C784.143 114.301 782.104 108.208 779.516 103.033C777.014 97.7249 773.767 93.4913 769.775 90.3321C765.869 87.04 761.242 84.9318 755.893 84.0075C750.521 82.9736 744.219 83.225 736.989 84.7615L710.696 90.3489L730.042 181.388ZM692.291 80.52L732.552 71.9643C750.628 68.1229 765.519 69.7675 777.225 76.898C788.931 84.0285 796.786 97.0154 800.79 115.859C802.886 125.718 803.652 134.716 803.091 142.85C802.506 150.875 800.472 158.005 796.988 164.242C793.481 170.369 788.458 175.558 781.919 179.81C775.38 184.062 767.236 187.224 757.486 189.296L717.225 197.852L692.291 80.52Z" fill="white"/>
<rect x="334" y="272.214" width="488.841" height="220" rx="110" transform="rotate(11.975 334 272.214)" fill="black" fill-opacity="0.8"/>
<path d="M423.068 435.677C422.231 439.621 420.804 443.383 418.785 446.962C416.876 450.564 414.227 453.609 410.837 456.096C407.58 458.496 403.508 460.151 398.621 461.061C393.867 461.884 388.203 461.599 381.629 460.205C370.673 457.881 362.84 453.243 358.132 446.291C353.448 439.229 352.29 430.111 354.661 418.935L356.194 411.704L371.807 415.015L370.761 419.946C370.041 423.342 369.653 426.523 369.596 429.488C369.54 432.452 369.948 435.115 370.822 437.476C371.804 439.86 373.373 441.91 375.528 443.626C377.815 445.256 380.877 446.478 384.711 447.291C391.833 448.802 397.115 447.918 400.558 444.642C404.11 441.388 406.572 436.529 407.943 430.065L426.139 344.277L441.751 347.588L423.068 435.677ZM472.925 426.158L512.696 434.594L504.747 375.719L504.418 375.65L472.925 426.158ZM499.199 359.773L516.455 363.433L537.418 490.5L520.162 486.84L514.838 448.787L465.206 438.26L444.564 470.806L428.623 467.424L499.199 359.773ZM587.632 501.15L569.883 497.386L553.521 371.295L570.284 374.85L582.233 483.69L582.562 483.76L637.994 389.212L654.264 392.662L587.632 501.15ZM664.874 466.871L704.645 475.306L696.695 416.432L696.367 416.362L664.874 466.871ZM691.147 400.486L708.403 404.146L729.367 531.212L712.111 527.552L706.787 489.5L657.155 478.973L636.513 511.518L620.571 508.137L691.147 400.486Z" fill="white"/>
</svg>
