<svg width="920" height="787" viewBox="0 0 920 787" fill="none" xmlns="http://www.w3.org/2000/svg">
<rect y="185.659" width="893.169" height="220" rx="110" transform="rotate(-11.9973 0 185.659)" fill="black" fill-opacity="0.9"/>
<path d="M104.89 268.197L136.113 261.562C144.987 259.676 151.015 256.792 154.198 252.909C157.466 248.894 158.437 243.764 157.11 237.52C156.226 233.357 154.87 230.21 153.043 228.079C151.216 225.948 149.013 224.47 146.433 223.644C143.853 222.819 140.994 222.567 137.857 222.89C134.806 223.081 131.582 223.537 128.186 224.259L96.9632 230.894L104.89 268.197ZM78.5581 221.065L121.12 212.02C123.639 211.485 126.335 210.969 129.207 210.473C132.165 209.845 135.103 209.392 138.021 209.115C140.916 208.729 143.627 208.554 146.153 208.59C148.79 208.602 151.1 208.97 153.086 209.693C157.409 211.178 161.316 213.669 164.807 217.163C168.407 220.635 170.836 225.328 172.093 231.244C173.42 237.489 173.039 243.238 170.949 248.491C168.946 253.611 165.383 257.861 160.262 261.239L160.331 261.568C167.888 261.565 174.119 263.676 179.024 267.9C183.929 272.125 187.15 277.853 188.687 285.083C189.595 289.356 189.713 293.682 189.04 298.061C188.368 302.441 186.836 306.545 184.443 310.374C182.137 314.07 178.948 317.381 174.875 320.307C170.889 323.101 165.992 325.115 160.186 326.349L103.492 338.397L78.5581 221.065ZM116.31 321.933L155.42 313.621C162.322 312.155 167.295 309.152 170.337 304.612C173.49 300.049 174.368 294.481 172.971 287.908C172.156 284.073 170.769 281.048 168.809 278.83C166.849 276.613 164.513 275.049 161.8 274.137C159.174 273.092 156.268 272.622 153.084 272.726C149.877 272.72 146.63 273.067 143.344 273.765L107.684 281.343L116.31 321.933ZM191.054 197.159L206.665 193.841L228.805 298.027L290.922 284.826L293.716 297.973L215.988 314.491L191.054 197.159ZM282.366 177.754L363.381 160.538L366.175 173.684L300.771 187.583L308.699 224.886L369.665 211.93L372.459 225.077L311.492 238.032L320.118 278.622L386.014 264.618L388.808 277.765L307.3 295.086L282.366 177.754ZM382.662 156.44L399.259 152.913L481.267 234.93L481.596 234.86L461.376 139.713L476.166 136.57L501.1 253.902L484.009 257.534L402.704 176.398L402.376 176.468L422.385 270.629L407.596 273.772L382.662 156.44ZM539.172 232.071L565.136 226.554C566.889 226.181 569.057 225.606 571.639 224.828C574.199 223.941 576.853 222.69 579.601 221.075C582.326 219.351 584.903 217.201 587.333 214.623C589.872 212.023 591.931 208.78 593.51 204.895C595.088 201.01 596.055 196.396 596.408 191.054C596.847 185.579 596.299 179.226 594.762 171.996C593.272 164.984 591.233 158.891 588.645 153.716C586.143 148.408 582.896 144.175 578.904 141.016C574.999 137.723 570.371 135.615 565.022 134.691C559.65 133.657 553.349 133.908 546.118 135.445L519.825 141.032L539.172 232.071ZM501.42 131.203L541.681 122.648C559.757 118.806 574.649 120.451 586.354 127.581C598.06 134.712 605.915 147.699 609.92 166.542C612.015 176.402 612.782 185.399 612.221 193.533C611.636 201.558 609.602 208.689 606.118 214.925C602.611 221.052 597.588 226.241 591.049 230.494C584.51 234.746 576.365 237.908 566.615 239.98L526.354 248.535L501.42 131.203ZM617.125 106.615L698.14 89.399L700.934 102.545L635.531 116.444L643.458 153.747L704.424 140.791L707.218 153.938L646.251 166.894L654.877 207.483L720.774 193.48L723.567 206.626L642.059 223.947L617.125 106.615ZM717.585 85.2668L772.8 73.5332C783.975 71.1586 793.266 72.0466 800.675 76.1972C808.193 80.3246 812.965 87.1539 814.99 96.6851C816.504 103.806 816.187 110.4 814.041 116.466C812.005 122.51 807.636 127.274 800.934 130.759L801.004 131.088C804.54 131.023 807.511 131.537 809.919 132.628C812.436 133.696 814.53 135.198 816.2 137.133C817.957 138.935 819.389 141.093 820.496 143.606C821.712 146.095 822.787 148.729 823.721 151.508C824.545 154.31 825.326 157.178 826.065 160.113C826.803 163.047 827.694 165.892 828.737 168.647C829.781 171.403 830.965 174.014 832.291 176.48C833.703 178.813 835.44 180.791 837.502 182.414L820.083 186.116C818.732 185.144 817.615 183.663 816.735 181.675C815.964 179.663 815.256 177.409 814.611 174.913C813.943 172.307 813.239 169.536 812.501 166.602C811.763 163.667 810.817 160.834 809.664 158.102C808.621 155.346 807.503 152.779 806.31 150.399C805.094 147.909 803.576 145.884 801.756 144.325C799.913 142.655 797.724 141.517 795.191 140.911C792.634 140.195 789.439 140.244 785.604 141.059L747.48 149.16L758.131 199.281L742.519 202.599L717.585 85.2668ZM777.223 129.1C780.839 128.331 784.231 127.324 787.401 126.078C790.572 124.832 793.199 123.186 795.283 121.14C797.454 118.961 798.972 116.406 799.837 113.474C800.789 110.409 800.811 106.74 799.903 102.468C798.646 96.5517 795.978 92.0805 791.9 89.0541C787.822 86.0277 782.112 85.2944 774.772 86.8543L735.99 95.0957L744.686 136.014L777.223 129.1Z" fill="white"/>
<rect x="178.432" y="303.36" width="694.385" height="220" rx="110" transform="rotate(11.975 178.432 303.36)" fill="black" fill-opacity="0.8"/>
<path d="M213.788 473.588L239.755 479.095C241.508 479.467 243.722 479.822 246.398 480.161C249.097 480.39 252.031 480.325 255.198 479.966C258.389 479.498 261.617 478.58 264.884 477.212C268.261 475.867 271.46 473.741 274.481 470.832C277.502 467.924 280.259 464.101 282.752 459.363C285.379 454.539 287.458 448.511 288.992 441.28C290.479 434.268 291.092 427.872 290.829 422.092C290.7 416.225 289.453 411.038 287.089 406.529C284.858 401.934 281.486 398.128 276.974 395.11C272.486 391.982 266.626 389.652 259.394 388.118L233.099 382.541L213.788 473.588ZM220.275 366.082L260.54 374.622C278.617 378.456 291.556 386.009 299.355 397.281C307.154 408.552 309.055 423.61 305.058 442.455C302.967 452.316 300.012 460.848 296.194 468.053C292.399 475.148 287.643 480.837 281.926 485.12C276.232 489.294 269.534 491.995 261.832 493.223C254.129 494.452 245.402 494.032 235.651 491.964L195.387 483.424L220.275 366.082ZM335.99 390.625L417.012 407.81L414.223 420.957L348.814 407.084L340.902 444.39L401.873 457.322L399.085 470.47L338.113 457.538L329.503 498.131L395.405 512.109L392.617 525.256L311.102 507.967L335.99 390.625ZM497.047 460.679C497.96 452.056 496.182 445.325 491.713 440.484C487.377 435.557 481.155 432.234 473.047 430.515C469.761 429.817 466.459 429.461 463.142 429.444C459.825 429.427 456.744 429.919 453.899 430.918C451.163 431.941 448.75 433.604 446.658 435.909C444.699 438.126 443.313 441.153 442.5 444.987C441.733 448.603 442.146 451.782 443.74 454.524C445.467 457.18 447.932 459.592 451.136 461.76C454.449 463.951 458.247 466.016 462.53 467.955C466.836 469.784 471.174 471.735 475.543 473.807C480.022 475.901 484.345 478.192 488.512 480.679C492.702 483.056 496.282 485.876 499.254 489.14C502.335 492.427 504.51 496.208 505.778 500.484C507.156 504.784 507.229 509.837 505.997 515.644C504.673 521.889 502.11 526.955 498.309 530.843C494.64 534.645 490.312 537.505 485.326 539.424C480.362 541.234 475.013 542.16 469.28 542.203C463.632 542.379 458.124 541.898 452.756 540.759C446.182 539.365 440.111 537.219 434.543 534.321C429.085 531.445 424.459 527.888 420.664 523.648C417.001 519.322 414.402 514.306 412.864 508.599C411.46 502.805 411.513 496.348 413.023 489.226L427.814 492.363C426.769 497.294 426.794 501.764 427.889 505.775C429.118 509.699 431.022 513.137 433.602 516.088C436.291 519.063 439.601 521.54 443.532 523.519C447.463 525.497 451.62 526.951 456.002 527.881C459.508 528.624 463.084 529.039 466.73 529.126C470.485 529.235 473.949 528.825 477.123 527.895C480.32 526.856 483.086 525.153 485.42 522.786C487.754 520.418 489.374 517.098 490.28 512.825C491.14 508.772 490.742 505.252 489.085 502.268C487.538 499.306 485.119 496.675 481.829 494.374C478.671 491.987 474.951 489.824 470.668 487.885C466.385 485.947 461.993 483.984 457.491 481.999C453.121 479.928 448.83 477.758 444.617 475.49C440.427 473.113 436.757 470.446 433.606 467.488C430.588 464.443 428.355 460.936 426.907 456.965C425.593 452.908 425.504 448.195 426.643 442.826C427.898 436.91 430.184 432.071 433.5 428.309C436.84 424.438 440.773 421.551 445.298 419.649C449.956 417.66 454.945 416.542 460.263 416.297C465.715 415.965 471.125 416.368 476.493 417.506C482.519 418.785 487.956 420.682 492.803 423.198C497.651 425.715 501.666 428.914 504.85 432.795C508.144 436.699 510.387 441.239 511.579 446.415C512.904 451.505 512.99 457.305 511.838 463.816L497.047 460.679ZM543.682 434.677L559.295 437.988L534.407 555.33L518.794 552.018L543.682 434.677ZM651.529 564.887C645.626 570.047 638.988 573.275 631.614 574.574C624.263 575.762 617.137 575.625 610.235 574.161C601.47 572.302 593.973 569.052 587.744 564.41C581.539 559.659 576.607 554.034 572.948 547.533C569.289 541.032 566.955 533.954 565.946 526.298C564.936 518.642 565.245 510.979 566.871 503.31C568.684 494.764 571.554 486.9 575.482 479.719C579.542 472.451 584.489 466.402 590.322 461.571C596.265 456.764 603.048 453.394 610.67 451.461C618.426 449.442 626.96 449.421 636.273 451.396C642.628 452.744 648.436 454.777 653.699 457.496C659.094 460.129 663.646 463.499 667.354 467.605C671.172 471.736 674.038 476.579 675.95 482.137C677.995 487.609 678.834 493.912 678.465 501.047L662.853 497.735C663.039 493.08 662.428 488.944 661.02 485.325C659.635 481.596 657.63 478.366 655.004 475.634C652.377 472.901 649.197 470.624 645.462 468.801C641.859 466.892 637.867 465.473 633.484 464.543C626.363 463.033 619.925 463.156 614.172 464.912C608.528 466.692 603.562 469.589 599.276 473.603C595.123 477.531 591.64 482.345 588.828 488.045C586.04 493.636 583.983 499.554 582.658 505.8C581.357 511.935 580.979 518.037 581.523 524.106C582.091 530.066 583.608 535.597 586.075 540.7C588.566 545.693 591.997 550.028 596.37 553.703C600.875 557.292 606.414 559.783 612.988 561.178C619.124 562.479 624.756 562.643 629.886 561.67C635.015 560.697 639.529 558.85 643.427 556.127C647.457 553.318 650.782 549.787 653.401 545.534C656.044 541.172 657.825 536.283 658.745 530.868L621.274 522.92L624.063 509.773L675.503 520.683L662.396 582.477L652.536 580.385L651.529 564.887ZM710.094 469.973L726.692 473.493L768.303 581.755L768.632 581.825L788.814 486.67L803.605 489.807L778.717 607.148L761.625 603.523L720.298 496.352L719.97 496.282L699.996 590.452L685.205 587.314L710.094 469.973Z" fill="white"/>
</svg>
