<svg width="520" height="462" viewBox="0 0 520 462" fill="none" xmlns="http://www.w3.org/2000/svg">
<rect x="98" y="74" width="394.449" height="220" rx="110" transform="rotate(14.9478 98 74)" fill="black" fill-opacity="0.9"/>
<path d="M203.98 192.656C204.444 183.97 202.25 176.777 197.396 171.076C192.65 165.404 186.22 161.485 178.104 159.318C171.178 157.469 164.88 157.179 159.209 158.447C153.646 159.744 148.65 162.177 144.219 165.747C139.925 169.238 136.27 173.594 133.253 178.817C130.235 184.039 127.918 189.68 126.3 195.74C124.538 202.341 123.62 208.819 123.546 215.175C123.501 221.423 124.455 227.184 126.409 232.459C128.499 237.654 131.687 242.214 135.971 246.14C140.256 250.066 145.86 252.954 152.786 254.802C157.872 256.16 162.579 256.548 166.908 255.964C171.374 255.302 175.404 253.885 178.997 251.715C182.728 249.465 185.954 246.501 188.675 242.822C191.396 239.143 193.554 234.967 195.15 230.292L210.57 234.409C205.155 248.613 197.089 258.632 186.374 264.465C175.659 270.299 162.889 271.236 148.064 267.279C139.083 264.881 131.642 261.271 125.742 256.45C119.87 251.521 115.439 245.759 112.447 239.164C109.454 232.569 107.804 225.289 107.496 217.324C107.297 209.388 108.324 201.2 110.577 192.76C112.83 184.319 116.129 176.738 120.475 170.015C124.849 163.184 130.045 157.616 136.063 153.31C142.189 149.034 149.08 146.237 156.735 144.919C164.527 143.521 172.86 144.007 181.733 146.376C187.793 147.994 193.311 150.336 198.288 153.404C203.265 156.472 207.445 160.138 210.828 164.403C214.21 168.667 216.672 173.556 218.215 179.068C219.786 184.472 220.181 190.374 219.4 196.773L203.98 192.656ZM272.003 247.68L307.388 257.127L304.441 268.164L269.057 258.718L259.567 294.265L248.529 291.318L258.019 255.771L222.635 246.324L225.581 235.287L260.966 244.734L270.456 209.187L281.493 212.133L272.003 247.68ZM369.329 273.664L404.714 283.11L401.767 294.148L366.382 284.701L356.892 320.248L345.855 317.301L355.345 281.754L319.96 272.308L322.907 261.27L358.292 270.717L367.782 235.17L378.819 238.117L369.329 273.664Z" fill="white"/>
</svg>
