<svg width="523" height="379" viewBox="0 0 523 379" fill="none" xmlns="http://www.w3.org/2000/svg">
<rect x="33.6023" y="91.2205" width="444.277" height="220" rx="110" transform="rotate(-3.02801 33.6023 91.2205)" fill="black" fill-opacity="0.9"/>
<path d="M191.806 170.055C189.567 161.65 185.259 155.485 178.883 151.56C172.619 147.63 165.292 145.886 156.904 146.33C149.746 146.709 143.666 148.376 138.663 151.333C133.772 154.283 129.77 158.14 126.657 162.903C123.65 167.548 121.518 172.82 120.26 178.719C119.002 184.618 118.538 190.699 118.869 196.962C119.23 203.784 120.356 210.23 122.248 216.298C124.133 222.255 126.818 227.441 130.305 231.855C133.896 236.151 138.336 239.505 143.623 241.917C148.909 244.329 155.132 245.346 162.29 244.967C167.547 244.689 172.144 243.605 176.081 241.714C180.125 239.706 183.521 237.115 186.269 233.941C189.123 230.65 191.276 226.835 192.729 222.496C194.182 218.157 194.946 213.518 195.021 208.579L210.959 207.736C210.192 222.918 205.612 234.937 197.221 243.792C188.829 252.648 176.971 257.481 161.649 258.292C152.366 258.783 144.174 257.646 137.074 254.881C129.968 252.004 123.975 247.891 119.093 242.542C114.212 237.192 110.396 230.777 107.645 223.296C105.006 215.809 103.455 207.703 102.994 198.979C102.532 190.255 103.331 182.026 105.389 174.29C107.441 166.443 110.665 159.543 115.061 153.59C119.569 147.632 125.26 142.845 132.134 139.229C139.115 135.495 147.191 133.385 156.362 132.9C162.625 132.569 168.597 133.094 174.278 134.476C179.959 135.858 185.066 138.055 189.6 141.068C194.133 144.08 197.984 147.97 201.152 152.738C204.315 157.393 206.512 162.885 207.744 169.212L191.806 170.055ZM297.894 163.434C296.544 154.87 293.084 148.828 287.515 145.309C282.051 141.673 275.181 140.073 266.904 140.511C263.549 140.689 260.267 141.199 257.059 142.041C253.851 142.884 251.003 144.156 248.513 145.858C246.135 147.554 244.235 149.786 242.811 152.553C241.493 155.202 240.937 158.484 241.145 162.399C241.34 166.089 242.562 169.053 244.811 171.289C247.166 173.408 250.172 175.099 253.828 176.364C257.596 177.623 261.799 178.634 266.438 179.398C271.071 180.05 275.765 180.811 280.522 181.681C285.391 182.545 290.159 183.639 294.827 184.962C299.49 186.174 303.679 187.971 307.394 190.354C311.221 192.731 314.3 195.821 316.632 199.623C319.076 203.419 320.455 208.281 320.769 214.209C321.106 220.584 319.942 226.141 317.276 230.881C314.717 235.502 311.277 239.385 306.957 242.53C302.631 245.563 297.705 247.842 292.178 249.368C286.769 251 281.324 251.961 275.843 252.251C269.133 252.606 262.713 252.104 256.585 250.746C250.569 249.382 245.179 247.144 240.416 244.031C235.759 240.8 231.949 236.628 228.986 231.513C226.13 226.281 224.51 220.03 224.125 212.76L239.224 211.961C239.49 216.994 240.672 221.306 242.768 224.896C244.971 228.369 247.7 231.196 250.956 233.379C254.323 235.557 258.162 237.092 262.471 237.985C266.78 238.879 271.172 239.208 275.646 238.971C279.225 238.782 282.786 238.257 286.329 237.396C289.985 236.53 293.225 235.237 296.05 233.517C298.869 231.686 301.1 229.325 302.741 226.434C304.383 223.543 305.088 219.917 304.857 215.555C304.639 211.417 303.343 208.121 300.97 205.667C298.709 203.207 295.691 201.291 291.917 199.921C288.25 198.433 284.096 197.306 279.458 196.542C274.819 195.778 270.068 195.02 265.206 194.268C260.449 193.398 255.742 192.413 251.086 191.314C246.423 190.102 242.187 188.476 238.378 186.434C234.675 184.275 231.61 181.465 229.184 178.004C226.864 174.426 225.559 169.896 225.269 164.416C224.949 158.376 225.905 153.111 228.134 148.619C230.358 144.015 233.41 140.208 237.288 137.199C241.272 134.072 245.801 131.702 250.875 130.087C256.055 128.355 261.385 127.344 266.865 127.054C273.017 126.729 278.759 127.154 284.093 128.33C289.426 129.506 294.133 131.556 298.213 134.481C302.406 137.4 305.747 141.204 308.238 145.895C310.836 150.468 312.421 156.049 312.993 162.636L297.894 163.434ZM406.68 157.68C405.33 149.115 401.87 143.073 396.3 139.555C390.836 135.918 383.966 134.319 375.69 134.757C372.334 134.934 369.053 135.444 365.845 136.287C362.637 137.13 359.788 138.402 357.298 140.104C354.921 141.8 353.02 144.031 351.596 146.798C350.278 149.448 349.723 152.729 349.93 156.644C350.125 160.335 351.347 163.298 353.597 165.535C355.952 167.653 358.957 169.345 362.613 170.61C366.381 171.868 370.584 172.88 375.223 173.644C379.856 174.296 384.551 175.057 389.307 175.927C394.176 176.791 398.944 177.885 403.613 179.208C408.275 180.419 412.464 182.216 416.179 184.599C420.006 186.977 423.086 190.066 425.418 193.868C427.862 197.665 429.24 202.527 429.554 208.454C429.891 214.829 428.727 220.387 426.062 225.126C423.502 229.748 420.063 233.631 415.743 236.775C411.417 239.808 406.49 242.088 400.963 243.614C395.554 245.246 390.109 246.207 384.629 246.497C377.918 246.851 371.499 246.35 365.37 244.992C359.354 243.628 353.964 241.389 349.201 238.276C344.544 235.046 340.734 230.873 337.772 225.759C334.915 220.526 333.295 214.275 332.91 207.005L348.009 206.207C348.276 211.24 349.457 215.551 351.554 219.141C353.756 222.614 356.485 225.442 359.741 227.625C363.109 229.802 366.947 231.337 371.257 232.231C375.566 233.125 379.957 233.453 384.431 233.216C388.01 233.027 391.571 232.502 395.115 231.642C398.77 230.776 402.01 229.483 404.835 227.763C407.655 225.931 409.885 223.57 411.527 220.68C413.168 217.789 413.874 214.163 413.643 209.801C413.424 205.662 412.128 202.366 409.755 199.912C407.494 197.452 404.477 195.537 400.703 194.166C397.035 192.678 392.882 191.552 388.243 190.788C383.604 190.024 378.854 189.266 373.991 188.513C369.234 187.644 364.528 186.659 359.871 185.559C355.209 184.348 350.973 182.721 347.164 180.68C343.46 178.52 340.396 175.71 337.97 172.25C335.649 168.671 334.344 164.142 334.054 158.661C333.735 152.622 334.69 147.356 336.92 142.864C339.144 138.26 342.195 134.454 346.073 131.445C350.058 128.318 354.587 125.947 359.661 124.333C364.84 122.601 370.17 121.59 375.651 121.3C381.802 120.975 387.545 121.4 392.878 122.576C398.212 123.752 402.919 125.802 406.999 128.726C411.191 131.645 414.533 135.45 417.024 140.141C419.621 144.714 421.206 150.294 421.779 156.881L406.68 157.68Z" fill="white"/>
</svg>
