<svg width="712" height="468" viewBox="0 0 712 468" fill="none" xmlns="http://www.w3.org/2000/svg">
<rect x="42.8551" y="127.856" width="623.404" height="220" rx="110" transform="rotate(-0.635974 42.8551 127.856)" fill="black" fill-opacity="0.9"/>
<path d="M112.899 178.043L191.686 177.169L191.835 190.608L129.007 191.305L129.431 229.439L184.531 228.827L184.68 242.267L129.58 242.878L130.189 297.811L114.23 297.988L112.899 178.043ZM210.034 176.965L225.993 176.788L227.324 296.733L211.365 296.91L210.034 176.965ZM343.708 280.488C339.074 286.812 333.3 291.412 326.388 294.289C319.474 297.054 312.489 298.475 305.434 298.554C296.474 298.653 288.449 297.118 281.357 293.949C274.264 290.667 268.223 286.254 263.233 280.709C258.243 275.164 254.42 268.766 251.763 261.515C249.107 254.264 247.735 246.719 247.648 238.879C247.551 230.144 248.635 221.843 250.9 213.978C253.275 205.999 256.782 199.016 261.42 193.028C266.17 187.039 272.053 182.269 279.07 178.719C286.198 175.056 294.521 173.171 304.041 173.065C310.536 172.993 316.649 173.71 322.378 175.214C328.218 176.605 333.395 178.9 337.911 182.098C342.539 185.295 346.393 189.396 349.472 194.403C352.663 199.295 354.857 205.263 356.056 212.307L340.097 212.484C339.262 207.901 337.762 203.997 335.598 200.773C333.433 197.437 330.771 194.722 327.611 192.629C324.452 190.536 320.851 189.008 316.808 188.045C312.876 186.968 308.67 186.455 304.19 186.505C296.91 186.585 290.655 188.111 285.424 191.081C280.304 194.05 276.091 197.961 272.785 202.814C269.59 207.554 267.242 213.012 265.742 219.189C264.242 225.254 263.527 231.479 263.598 237.862C263.667 244.134 264.63 250.172 266.487 255.975C268.342 261.667 271.031 266.734 274.552 271.175C278.072 275.504 282.367 278.985 287.437 281.616C292.617 284.135 298.567 285.357 305.286 285.283C311.558 285.213 317.091 284.143 321.884 282.074C326.677 280.005 330.679 277.216 333.888 273.708C337.208 270.087 339.682 265.916 341.309 261.193C342.936 256.359 343.607 251.199 343.322 245.714L305.02 246.139L304.871 232.7L357.452 232.116L358.153 295.28L348.073 295.392L343.708 280.488ZM380.64 175.071L402.479 174.829L441.396 275.203L478.242 173.988L500.081 173.746L501.412 293.69L486.293 293.858L485.186 194.072L484.85 194.076L448.496 294.278L434.889 294.429L396.319 195.059L395.983 195.062L397.091 294.848L381.972 295.016L380.64 175.071ZM548.083 243.609L588.737 243.158L568.125 187.439L567.789 187.443L548.083 243.609ZM559.229 173.089L576.868 172.893L625.069 292.318L607.43 292.513L593.926 256.541L543.193 257.104L530.154 293.371L513.859 293.552L559.229 173.089Z" fill="white"/>
</svg>
