<svg width="477" height="424" viewBox="0 0 477 424" fill="none" xmlns="http://www.w3.org/2000/svg">
<rect x="88.0559" y="67.3433" width="354.558" height="220" rx="110" transform="rotate(11.975 88.0559 67.3433)" fill="black" fill-opacity="0.9"/>
<path d="M195.872 251.394C189.97 256.553 183.331 259.782 175.957 261.08C168.607 262.269 161.48 262.131 154.578 260.667C145.813 258.808 138.316 255.558 132.087 250.917C125.882 246.166 120.95 240.54 117.291 234.04C113.632 227.539 111.298 220.461 110.289 212.805C109.279 205.148 109.588 197.486 111.215 189.816C113.027 181.27 115.897 173.407 119.825 166.225C123.885 158.958 128.832 152.908 134.665 148.078C140.608 143.27 147.391 139.9 155.014 137.968C162.769 135.949 171.303 135.927 180.616 137.902C186.971 139.25 192.779 141.284 198.042 144.003C203.437 146.635 207.989 150.005 211.697 154.112C215.515 158.242 218.381 163.086 220.293 168.644C222.339 174.115 223.177 180.418 222.809 187.553L207.196 184.242C207.382 179.587 206.771 175.45 205.363 171.831C203.978 168.103 201.973 164.873 199.347 162.14C196.721 159.408 193.54 157.13 189.805 155.308C186.203 153.399 182.21 151.979 177.828 151.05C170.706 149.539 164.268 149.662 158.515 151.419C152.871 153.199 147.906 156.095 143.619 160.109C139.466 164.037 135.983 168.851 133.172 174.552C130.383 180.143 128.326 186.061 127.002 192.306C125.7 198.442 125.322 204.544 125.866 210.613C126.434 216.572 127.952 222.104 130.419 227.207C132.909 232.2 136.34 236.534 140.713 240.209C145.218 243.798 150.758 246.29 157.331 247.684C163.467 248.986 169.099 249.15 174.229 248.177C179.358 247.204 183.872 245.356 187.77 242.634C191.8 239.825 195.125 236.294 197.745 232.041C200.387 227.678 202.168 222.789 203.088 217.374L165.618 209.427L168.406 196.279L219.846 207.19L206.739 268.983L196.879 266.892L195.872 251.394ZM255.259 156.654L270.871 159.965L245.983 277.307L230.37 273.995L255.259 156.654ZM320.967 184.329L281.853 176.033L284.641 162.886L378.482 182.789L375.693 195.937L336.579 187.641L314.48 291.835L298.867 288.524L320.967 184.329Z" fill="white"/>
</svg>
