<svg width="920" height="693" viewBox="0 0 920 693" fill="none" xmlns="http://www.w3.org/2000/svg">
<rect y="185.659" width="893.169" height="220" rx="110" transform="rotate(-11.9973 0 185.659)" fill="black" fill-opacity="0.9"/>
<path d="M153.725 240.987C151.056 232.738 146.697 227.31 140.646 224.702C134.683 221.962 127.647 221.453 119.54 223.176C116.254 223.875 113.092 224.89 110.054 226.222C107.017 227.555 104.401 229.256 102.207 231.325C100.123 233.371 98.5935 235.871 97.6185 238.827C96.7298 241.649 96.6928 244.977 97.5077 248.812C98.276 252.427 99.9453 255.164 102.516 257.022C105.172 258.748 108.405 259.95 112.213 260.629C116.131 261.285 120.441 261.629 125.142 261.66C129.82 261.582 134.576 261.602 139.41 261.72C144.354 261.814 149.234 262.151 154.052 262.73C158.846 263.2 163.264 264.322 167.305 266.097C171.456 267.848 174.979 270.42 177.876 273.812C180.882 277.181 183.002 281.768 184.236 287.575C185.563 293.819 185.279 299.49 183.385 304.587C181.578 309.551 178.785 313.923 175.009 317.703C171.208 321.373 166.698 324.393 161.476 326.762C156.387 329.217 151.159 331.015 145.791 332.156C139.217 333.553 132.798 334.058 126.533 333.672C120.378 333.263 114.705 331.892 109.515 329.56C104.411 327.095 99.9971 323.567 96.2736 318.977C92.6364 314.254 90.0612 308.332 88.5479 301.211L103.338 298.068C104.385 302.998 106.224 307.072 108.855 310.292C111.572 313.379 114.709 315.746 118.265 317.395C121.931 319.021 125.962 319.939 130.358 320.15C134.754 320.36 139.143 320 143.525 319.069C147.031 318.324 150.466 317.25 153.832 315.848C157.308 314.423 160.307 312.64 162.83 310.501C165.329 308.253 167.164 305.573 168.335 302.461C169.505 299.35 169.637 295.658 168.729 291.385C167.868 287.332 166.074 284.278 163.347 282.224C160.73 280.147 157.451 278.725 153.51 277.96C149.655 277.061 145.377 276.596 140.675 276.565C135.974 276.533 131.163 276.525 126.243 276.54C121.409 276.423 116.607 276.184 111.835 275.824C107.041 275.354 102.603 274.408 98.5226 272.985C94.528 271.429 91.0626 269.131 88.1266 266.091C85.2768 262.918 83.2815 258.648 82.1407 253.28C80.8836 247.364 81.0061 242.013 82.5083 237.229C83.9873 232.334 86.4077 228.099 89.7696 224.522C93.2178 220.812 97.3219 217.764 102.082 215.379C106.928 212.86 112.036 211.031 117.404 209.89C123.429 208.61 129.168 208.134 134.619 208.464C140.071 208.794 145.04 210.086 149.526 212.338C154.122 214.568 158.016 217.805 161.208 222.05C164.487 226.163 166.922 231.427 168.515 237.844L153.725 240.987ZM185.116 198.42L200.728 195.103L211.448 245.552L273.237 232.422L262.516 181.972L278.127 178.655L303.061 295.987L287.45 299.304L276.03 245.568L214.242 258.699L225.661 312.435L210.05 315.752L185.116 198.42ZM338.555 237.777L378.323 229.326L347.139 178.76L346.81 178.83L338.555 237.777ZM335.59 166.444L352.845 162.777L423.627 270.366L406.372 274.032L386.046 241.425L336.419 251.972L330.78 290.096L314.84 293.484L335.59 166.444ZM448.02 251.442L473.984 245.924C475.737 245.552 477.905 244.977 480.487 244.199C483.047 243.311 485.701 242.06 488.449 240.446C491.174 238.722 493.751 236.571 496.181 233.994C498.72 231.393 500.779 228.15 502.357 224.265C503.936 220.38 504.902 215.767 505.256 210.425C505.695 204.95 505.147 198.597 503.61 191.366C502.12 184.355 500.081 178.262 497.493 173.087C494.991 167.779 491.744 163.545 487.752 160.386C483.847 157.094 479.219 154.986 473.87 154.061C468.498 153.028 462.197 153.279 454.966 154.815L428.673 160.403L448.02 251.442ZM410.268 150.574L450.529 142.018C468.605 138.177 483.497 139.821 495.202 146.952C506.908 154.082 514.763 167.069 518.768 185.913C520.863 195.772 521.63 204.769 521.068 212.904C520.484 220.929 518.45 228.059 514.966 234.296C511.459 240.422 506.436 245.612 499.897 249.864C493.358 254.116 485.213 257.278 475.463 259.35L435.202 267.906L410.268 150.574ZM525.973 125.986L606.988 108.769L609.782 121.916L544.379 135.815L552.306 173.118L613.272 160.162L616.066 173.308L555.099 186.264L563.725 226.854L629.621 212.85L632.415 225.997L550.907 243.318L525.973 125.986ZM626.433 104.637L681.648 92.9037C692.823 90.529 702.114 91.417 709.523 95.5677C717.041 99.6951 721.813 106.524 723.838 116.056C725.352 123.177 725.035 129.77 722.889 135.837C720.853 141.88 716.484 146.644 709.782 150.13L709.852 150.458C713.388 150.394 716.359 150.907 718.767 151.999C721.284 153.067 723.378 154.568 725.048 156.503C726.805 158.306 728.237 160.463 729.344 162.976C730.56 165.466 731.635 168.1 732.569 170.878C733.393 173.68 734.174 176.548 734.913 179.483C735.651 182.418 736.542 185.263 737.585 188.018C738.629 190.773 739.813 193.384 741.139 195.85C742.551 198.184 744.288 200.162 746.35 201.785L728.931 205.486C727.579 204.514 726.463 203.034 725.583 201.045C724.812 199.034 724.104 196.78 723.459 194.283C722.791 191.677 722.087 188.907 721.349 185.972C720.611 183.037 719.665 180.204 718.512 177.472C717.469 174.717 716.351 172.149 715.158 169.769C713.942 167.28 712.424 165.255 710.604 163.695C708.761 162.026 706.572 160.888 704.039 160.281C701.482 159.565 698.287 159.614 694.452 160.429L656.327 168.531L666.979 218.652L651.367 221.969L626.433 104.637ZM686.071 148.47C689.686 147.702 693.079 146.695 696.249 145.448C699.42 144.202 702.047 142.556 704.131 140.51C706.302 138.331 707.82 135.776 708.685 132.844C709.637 129.779 709.659 126.111 708.751 121.838C707.494 115.922 704.826 111.451 700.748 108.425C696.67 105.398 690.96 104.665 683.62 106.225L644.838 114.466L653.534 155.384L686.071 148.47ZM814.096 100.654C811.427 92.4043 807.067 86.9759 801.017 84.3686C795.053 81.6284 788.018 81.1197 779.911 82.8425C776.624 83.5409 773.462 84.5564 770.425 85.8888C767.388 87.2213 764.772 88.9221 762.578 90.9914C760.494 93.0373 758.964 95.5379 757.989 98.4931C757.101 101.315 757.064 104.644 757.879 108.478C758.647 112.094 760.316 114.83 762.887 116.689C765.543 118.414 768.776 119.616 772.584 120.296C776.502 120.951 780.812 121.295 785.513 121.327C790.191 121.249 794.947 121.268 799.781 121.386C804.725 121.481 809.605 121.817 814.423 122.397C819.217 122.866 823.635 123.989 827.676 125.763C831.827 127.515 835.35 130.086 838.247 133.479C841.253 136.847 843.373 141.435 844.606 147.241C845.933 153.486 845.65 159.157 843.756 164.254C841.949 169.218 839.156 173.59 835.379 177.369C831.579 181.039 827.068 184.059 821.847 186.428C816.758 188.883 811.53 190.682 806.162 191.822C799.588 193.219 793.169 193.725 786.904 193.338C780.748 192.929 775.076 191.558 769.886 189.226C764.782 186.761 760.368 183.234 756.645 178.643C753.007 173.92 750.432 167.998 748.919 160.877L763.709 157.734C764.756 162.664 766.595 166.739 769.226 169.958C771.943 173.045 775.08 175.413 778.636 177.062C782.302 178.687 786.333 179.605 790.729 179.816C795.125 180.027 799.514 179.667 803.896 178.735C807.401 177.99 810.837 176.917 814.203 175.514C817.679 174.089 820.678 172.307 823.2 170.168C825.7 167.919 827.535 165.239 828.705 162.128C829.876 159.016 830.008 155.324 829.1 151.052C828.238 146.998 826.444 143.944 823.718 141.89C821.101 139.813 817.822 138.391 813.881 137.626C810.026 136.728 805.748 136.263 801.046 136.231C796.345 136.2 791.534 136.192 786.614 136.207C781.78 136.089 776.977 135.85 772.206 135.49C767.412 135.02 762.974 134.074 758.893 132.651C754.899 131.096 751.434 128.798 748.497 125.758C745.648 122.585 743.652 118.314 742.512 112.946C741.254 107.03 741.377 101.68 742.879 96.8951C744.358 92.0008 746.779 87.7651 750.14 84.1882C753.589 80.4784 757.693 77.4307 762.453 75.0451C767.299 72.5267 772.406 70.6971 777.775 69.5564C783.8 68.2759 789.539 67.8007 794.99 68.1307C800.442 68.4607 805.411 69.752 809.897 72.0047C814.493 74.2341 818.387 77.4713 821.579 81.7165C824.858 85.8289 827.293 91.0936 828.886 97.5107L814.096 100.654Z" fill="white"/>
<rect x="291.433" y="278.253" width="501.503" height="220" rx="110" transform="rotate(11.975 291.433 278.253)" fill="black" fill-opacity="0.8"/>
<path d="M399.249 462.304C393.346 467.463 386.708 470.692 379.334 471.99C371.983 473.179 364.857 473.041 357.954 471.577C349.189 469.718 341.693 466.468 335.464 461.827C329.259 457.076 324.327 451.45 320.668 444.95C317.009 438.449 314.675 431.371 313.665 423.715C312.656 416.058 312.965 408.396 314.591 400.726C316.404 392.18 319.274 384.317 323.201 377.135C327.262 369.868 332.208 363.819 338.042 358.988C343.985 354.18 350.767 350.81 358.39 348.878C366.146 346.859 374.68 346.837 383.993 348.812C390.348 350.16 396.156 352.194 401.418 354.913C406.814 357.545 411.365 360.915 415.074 365.022C418.892 369.152 421.758 373.996 423.67 379.554C425.715 385.025 426.554 391.328 426.185 398.463L410.573 395.152C410.758 390.497 410.147 386.36 408.74 382.741C407.355 379.013 405.35 375.783 402.724 373.05C400.097 370.318 396.917 368.04 393.182 366.218C389.579 364.309 385.587 362.89 381.204 361.96C374.083 360.449 367.645 360.572 361.891 362.329C356.247 364.109 351.282 367.005 346.996 371.019C342.843 374.947 339.36 379.761 336.548 385.462C333.759 391.053 331.703 396.971 330.378 403.216C329.077 409.352 328.698 415.454 329.243 421.523C329.811 427.483 331.328 433.014 333.795 438.117C336.285 443.11 339.717 447.444 344.089 451.119C348.595 454.708 354.134 457.2 360.708 458.594C366.844 459.896 372.476 460.06 377.606 459.087C382.735 458.114 387.249 456.266 391.146 453.544C395.177 450.735 398.502 447.204 401.121 442.951C403.764 438.588 405.545 433.7 406.465 428.284L368.994 420.337L371.783 407.189L423.223 418.1L410.116 479.893L400.255 477.802L399.249 462.304ZM457.978 367.424L473.591 370.736L451.491 474.93L513.613 488.106L510.824 501.253L433.09 484.766L457.978 367.424ZM609.887 435.537C610.8 426.915 609.022 420.184 604.553 415.343C600.217 410.416 593.995 407.093 585.887 405.373C582.6 404.676 579.298 404.319 575.982 404.303C572.665 404.286 569.584 404.778 566.739 405.777C564.003 406.8 561.589 408.463 559.498 410.767C557.539 412.985 556.153 416.011 555.339 419.846C554.573 423.462 554.986 426.641 556.58 429.383C558.306 432.039 560.771 434.451 563.975 436.619C567.289 438.81 571.087 440.875 575.37 442.814C579.676 444.643 584.014 446.594 588.383 448.665C592.862 450.76 597.185 453.051 601.351 455.538C605.541 457.915 609.122 460.735 612.094 463.999C615.175 467.285 617.349 471.067 618.618 475.343C619.996 479.643 620.069 484.696 618.837 490.503C617.513 496.748 614.95 501.814 611.148 505.702C607.48 509.504 603.152 512.364 598.165 514.283C593.202 516.092 587.853 517.019 582.119 517.062C576.472 517.238 570.964 516.757 565.595 515.618C559.022 514.224 552.951 512.078 547.383 509.179C541.925 506.304 537.298 502.747 533.503 498.507C529.841 494.181 527.241 489.165 525.704 483.458C524.3 477.664 524.353 471.207 525.863 464.085L540.654 467.222C539.608 472.152 539.633 476.623 540.729 480.634C541.958 484.558 543.862 487.996 546.441 490.947C549.131 493.922 552.441 496.399 556.372 498.377C560.303 500.356 564.46 501.81 568.842 502.74C572.348 503.483 575.924 503.898 579.569 503.984C583.324 504.094 586.789 503.684 589.963 502.754C593.16 501.715 595.926 500.012 598.259 497.644C600.593 495.277 602.214 491.957 603.12 487.684C603.98 483.63 603.581 480.111 601.924 477.126C600.377 474.165 597.958 471.534 594.668 469.233C591.511 466.846 587.791 464.683 583.508 462.744C579.225 460.805 574.832 458.843 570.33 456.858C565.961 454.786 561.67 452.617 557.457 450.349C553.267 447.972 549.596 445.305 546.445 442.346C543.427 439.302 541.195 435.794 539.747 431.824C538.432 427.766 538.344 423.054 539.483 417.685C540.738 411.769 543.023 406.93 546.34 403.168C549.68 399.297 553.613 396.41 558.138 394.507C562.796 392.518 567.784 391.401 573.103 391.155C578.554 390.823 583.964 391.227 589.333 392.365C595.359 393.643 600.796 395.541 605.643 398.057C610.49 400.574 614.506 403.773 617.69 407.654C620.984 411.558 623.226 416.098 624.418 421.274C625.743 426.364 625.83 432.164 624.678 438.675L609.887 435.537ZM655.865 409.396L671.477 412.708L649.378 516.902L711.5 530.078L708.711 543.225L630.977 526.738L655.865 409.396Z" fill="white"/>
</svg>
