<svg width="577" height="328" viewBox="0 0 577 328" fill="none" xmlns="http://www.w3.org/2000/svg">
<rect y="112.758" width="542.459" height="220" rx="110" transform="rotate(-11.9973 0 112.758)" fill="black" fill-opacity="0.9"/>
<path d="M188.136 232.223C184.839 239.335 180.085 244.983 173.875 249.165C167.641 253.238 161.073 256.008 154.172 257.474C145.407 259.337 137.237 259.413 129.66 257.703C122.059 255.883 115.267 252.746 109.282 248.293C103.298 243.839 98.2894 238.32 94.2564 231.734C90.2234 225.149 87.3921 218.022 85.7624 210.353C83.9465 201.808 83.374 193.456 84.045 185.299C84.8022 177.008 86.8645 169.471 90.2318 162.687C93.7088 155.879 98.5373 150.044 104.717 145.181C110.984 140.186 118.773 136.698 128.085 134.719C134.439 133.369 140.573 132.867 146.486 133.214C152.486 133.427 158.014 134.657 163.071 136.903C168.238 139.125 172.824 142.387 176.83 146.689C180.922 150.857 184.249 156.276 186.811 162.945L171.2 166.262C169.478 161.934 167.239 158.402 164.483 155.667C161.703 152.823 158.558 150.686 155.048 149.256C151.538 147.827 147.706 147.038 143.553 146.89C139.486 146.609 135.261 146.935 130.879 147.866C123.758 149.379 117.926 152.107 113.382 156.05C108.948 159.969 105.588 164.633 103.302 170.043C101.103 175.319 99.8768 181.133 99.6235 187.484C99.3469 193.726 99.8722 199.969 101.199 206.214C102.503 212.349 104.637 218.078 107.6 223.403C110.54 228.617 114.174 233.055 118.501 236.716C122.805 240.266 127.702 242.833 133.191 244.414C138.765 245.863 144.84 245.889 151.413 244.492C157.548 243.188 162.761 241.05 167.053 238.077C171.345 235.104 174.718 231.582 177.174 227.511C179.715 223.306 181.319 218.729 181.984 213.779C182.626 208.719 182.268 203.528 180.908 198.206L143.44 206.168L140.647 193.022L192.082 182.091L205.213 243.88L195.353 245.975L188.136 232.223ZM278.417 141.589C275.748 133.339 271.389 127.911 265.339 125.304C259.375 122.563 252.339 122.055 244.232 123.778C240.946 124.476 237.784 125.491 234.746 126.824C231.709 128.156 229.093 129.857 226.9 131.926C224.815 133.972 223.286 136.473 222.311 139.428C221.422 142.251 221.385 145.579 222.2 149.413C222.968 153.029 224.637 155.765 227.208 157.624C229.865 159.349 233.097 160.551 236.905 161.231C240.823 161.887 245.133 162.23 249.834 162.262C254.512 162.184 259.268 162.203 264.102 162.321C269.046 162.416 273.926 162.752 278.744 163.332C283.538 163.801 287.956 164.924 291.997 166.698C296.148 168.45 299.672 171.022 302.568 174.414C305.574 177.782 307.694 182.37 308.928 188.176C310.255 194.421 309.971 200.092 308.077 205.189C306.27 210.153 303.478 214.525 299.701 218.304C295.901 221.974 291.39 224.994 286.168 227.363C281.079 229.818 275.851 231.617 270.483 232.757C263.91 234.154 257.49 234.66 251.225 234.273C245.07 233.864 239.397 232.493 234.207 230.161C229.103 227.696 224.689 224.169 220.966 219.578C217.329 214.855 214.753 208.933 213.24 201.812L228.03 198.669C229.077 203.599 230.917 207.674 233.547 210.893C236.264 213.98 239.401 216.348 242.957 217.997C246.623 219.622 250.654 220.54 255.05 220.751C259.446 220.962 263.835 220.602 268.217 219.67C271.723 218.925 275.159 217.852 278.525 216.45C282 215.024 284.999 213.242 287.522 211.103C290.021 208.854 291.856 206.174 293.027 203.063C294.198 199.951 294.329 196.259 293.421 191.987C292.56 187.933 290.766 184.879 288.039 182.825C285.422 180.748 282.143 179.327 278.202 178.561C274.347 177.663 270.069 177.198 265.368 177.166C260.666 177.135 255.856 177.127 250.935 177.142C246.101 177.024 241.299 176.785 236.528 176.425C231.733 175.955 227.296 175.009 223.215 173.586C219.22 172.031 215.755 169.733 212.819 166.693C209.969 163.52 207.974 159.249 206.833 153.881C205.576 147.965 205.698 142.615 207.2 137.83C208.679 132.936 211.1 128.7 214.462 125.123C217.91 121.413 222.014 118.366 226.774 115.98C231.621 113.462 236.728 111.632 242.096 110.491C248.121 109.211 253.86 108.736 259.312 109.066C264.763 109.396 269.732 110.687 274.218 112.94C278.814 115.169 282.708 118.406 285.9 122.652C289.179 126.764 291.614 132.029 293.207 138.446L278.417 141.589ZM344.653 163.581L384.421 155.13L353.237 104.564L352.908 104.633L344.653 163.581ZM341.688 92.247L358.943 88.5803L429.725 196.169L412.47 199.836L392.145 167.229L342.517 177.775L336.878 215.9L320.938 219.287L341.688 92.247ZM443.921 129.261L474.486 122.766C483.383 120.989 489.463 117.808 492.725 113.222C496.096 108.612 497.037 102.802 495.547 95.7905C494.057 88.7791 490.846 83.9081 485.915 81.1775C481.07 78.314 474.211 77.8252 465.337 79.711L434.771 86.2063L443.921 129.261ZM416.366 76.3774L467.802 65.447C479.634 62.9327 489.214 64.1028 496.543 68.9573C503.959 73.6791 508.83 81.5176 511.159 92.473C513.487 103.428 512.235 112.625 507.404 120.064C502.682 127.48 494.394 132.39 482.539 134.794L446.715 142.407L456.912 190.392L441.3 193.709L416.366 76.3774Z" fill="white"/>
</svg>
