<svg width="919" height="887" viewBox="0 0 919 887" fill="none" xmlns="http://www.w3.org/2000/svg">
<rect x="42.8981" y="209.714" width="675.811" height="220" rx="110" transform="rotate(-17.6751 42.8981 209.714)" fill="black" fill-opacity="0.9"/>
<path d="M151.352 304.318L190.088 291.974L154.054 244.741L153.734 244.843L151.352 304.318ZM141.344 233.627L158.151 228.271L239.23 328.33L222.423 333.685L198.971 303.249L150.63 318.654L148.791 357.149L133.265 362.097L141.344 233.627ZM261.631 307.085L286.922 299.026C288.63 298.482 290.73 297.695 293.223 296.666C295.682 295.529 298.199 294.022 300.774 292.143C303.316 290.158 305.667 287.763 307.83 284.958C310.099 282.119 311.827 278.689 313.014 274.666C314.201 270.644 314.705 265.958 314.529 260.607C314.424 255.115 313.25 248.848 311.006 241.805C308.829 234.975 306.197 229.114 303.11 224.22C300.095 219.186 296.445 215.294 292.16 212.545C287.948 209.656 283.135 208.016 277.721 207.625C272.273 207.128 266.027 208.001 258.984 210.246L233.373 218.407L261.631 307.085ZM214.086 210.447L253.303 197.95C270.91 192.339 285.891 192.503 298.245 198.44C310.599 204.377 319.7 216.523 325.549 234.878C328.61 244.482 330.263 253.359 330.509 261.509C330.721 269.553 329.402 276.849 326.553 283.4C323.669 289.844 319.184 295.505 313.098 300.383C307.012 305.261 299.22 309.213 289.722 312.24L250.505 324.737L214.086 210.447ZM353.804 228.872C355.641 234.634 358.207 240.105 361.503 245.285C364.765 250.358 368.711 254.625 373.341 258.087C377.971 261.549 383.235 263.868 389.135 265.044C395 266.114 401.401 265.543 408.338 263.333C415.274 261.123 420.825 257.885 424.99 253.618C429.122 249.246 432.074 244.308 433.847 238.806C435.62 233.304 436.37 227.54 436.095 221.515C435.787 215.383 434.715 209.436 432.879 203.674C431.042 197.911 428.493 192.493 425.231 187.42C421.934 182.241 417.971 177.92 413.342 174.458C408.712 170.996 403.465 168.731 397.599 167.661C391.699 166.485 385.281 167.002 378.345 169.212C371.409 171.423 365.875 174.714 361.743 179.087C357.578 183.353 354.609 188.237 352.836 193.739C351.063 199.241 350.33 205.058 350.638 211.19C350.913 217.215 351.968 223.109 353.804 228.872ZM338.598 233.717C336.115 225.927 334.855 218.1 334.818 210.237C334.853 202.232 336.281 194.724 339.102 187.713C341.922 180.701 346.22 174.454 351.995 168.969C357.771 163.485 365.194 159.297 374.264 156.407C383.335 153.516 391.812 152.637 399.696 153.769C407.58 154.9 414.7 157.51 421.057 161.597C427.414 165.683 432.869 170.998 437.422 177.54C442.048 183.942 445.603 191.038 448.085 198.828C450.567 206.618 451.791 214.515 451.756 222.52C451.793 230.384 450.402 237.821 447.581 244.833C444.761 251.844 440.463 258.092 434.687 263.576C428.878 268.954 421.438 273.088 412.367 275.979C403.297 278.869 394.837 279.802 386.987 278.777C379.103 277.645 371.983 275.036 365.626 270.949C359.269 266.862 353.777 261.618 349.151 255.216C344.598 248.674 341.08 241.508 338.598 233.717ZM479.272 180.074L509.685 170.382C518.329 167.628 524.042 164.161 526.825 159.983C529.68 155.664 530.139 150.464 528.201 144.381C526.908 140.326 525.248 137.329 523.219 135.389C521.191 133.449 518.852 132.196 516.203 131.63C513.554 131.064 510.684 131.096 507.594 131.728C504.577 132.22 501.414 132.992 498.106 134.046L467.693 143.738L479.272 180.074ZM448.406 135.778L489.864 122.567C492.318 121.785 494.95 121.005 497.758 120.228C500.639 119.31 503.518 118.569 506.395 118.005C509.237 117.334 511.917 116.891 514.435 116.677C517.06 116.428 519.396 116.565 521.443 117.088C525.892 118.139 530.026 120.231 533.846 123.363C537.772 126.461 540.653 130.892 542.489 136.654C544.427 142.737 544.617 148.495 543.057 153.929C541.57 159.223 538.445 163.804 533.683 167.672L533.785 167.992C541.304 167.242 547.713 168.726 553.012 172.445C558.312 176.163 562.083 181.544 564.328 188.587C565.654 192.749 566.199 197.042 565.963 201.466C565.728 205.891 564.609 210.126 562.607 214.173C560.678 218.079 557.832 221.69 554.069 225.005C550.378 228.179 545.705 230.668 540.049 232.47L484.825 250.068L448.406 135.778ZM495.951 232.416L534.048 220.277C540.771 218.134 545.422 214.654 548 209.835C550.686 204.983 551.009 199.355 548.968 192.953C547.778 189.218 546.098 186.344 543.929 184.332C541.759 182.319 539.28 180.994 536.49 180.354C533.773 179.575 530.836 179.394 527.678 179.813C524.486 180.124 521.289 180.79 518.087 181.811L483.352 192.879L495.951 232.416ZM557.984 100.86L636.899 75.7127L640.979 88.5182L577.272 108.819L588.85 145.155L648.236 126.231L652.317 139.037L592.931 157.961L605.53 197.498L669.718 177.044L673.799 189.849L594.404 215.149L557.984 100.86Z" fill="white"/>
<rect x="8.01465" y="393.53" width="893.169" height="220" rx="110" transform="rotate(-9.8629 8.01465 393.53)" fill="black" fill-opacity="0.8"/>
<path d="M85.8616 431.722L101.586 428.988L122.132 547.167L106.408 549.901L85.8616 431.722ZM128.034 424.39L143.758 421.656L162.002 526.594L224.568 515.716L226.87 528.958L148.58 542.569L128.034 424.39ZM220.005 408.4L235.73 405.666L253.974 510.604L316.54 499.726L318.842 512.967L240.552 526.579L220.005 408.4ZM419.444 451.482C422.073 466.6 420.021 478.665 413.29 487.68C406.539 496.583 395.715 502.33 380.819 504.92C365.591 507.568 353.051 506.054 343.197 500.378C333.434 494.572 327.181 483.78 324.438 468L311.315 392.525L327.039 389.791L340.162 465.266C342.003 475.86 346.218 483.426 352.804 487.964C359.372 492.393 367.952 493.686 378.545 491.844C388.587 490.099 395.731 486.072 399.977 479.763C404.314 473.325 405.562 464.809 403.72 454.216L390.598 378.74L406.322 376.007L419.444 451.482ZM505.8 394.35C503.441 386.007 499.286 380.42 493.337 377.589C487.48 374.629 480.468 373.858 472.303 375.278C468.992 375.853 465.795 376.75 462.71 377.969C459.625 379.187 456.948 380.79 454.678 382.776C452.519 384.743 450.898 387.184 449.813 390.101C448.82 392.889 448.659 396.213 449.331 400.075C449.964 403.717 451.53 406.514 454.029 408.466C456.62 410.29 459.805 411.612 463.586 412.432C467.477 413.234 471.77 413.737 476.467 413.944C481.145 414.04 485.897 414.237 490.723 414.535C495.66 414.813 500.525 415.332 505.317 416.09C510.091 416.738 514.464 418.024 518.436 419.948C522.519 421.853 525.944 424.554 528.712 428.051C531.59 431.53 533.538 436.193 534.555 442.041C535.648 448.331 535.154 453.987 533.071 459.01C531.08 463.904 528.127 468.169 524.212 471.805C520.278 475.331 515.658 478.18 510.351 480.353C505.175 482.618 499.883 484.22 494.476 485.16C487.855 486.311 481.422 486.577 475.175 485.958C469.039 485.319 463.422 483.738 458.322 481.214C453.313 478.561 449.034 474.872 445.484 470.146C442.025 465.29 439.673 459.277 438.426 452.104L453.322 449.514C454.185 454.48 455.871 458.62 458.38 461.935C460.981 465.121 464.027 467.604 467.519 469.384C471.122 471.145 475.116 472.213 479.501 472.587C483.886 472.961 488.285 472.765 492.699 471.998C496.23 471.384 499.704 470.439 503.12 469.163C506.646 467.868 509.709 466.198 512.31 464.155C514.891 462.001 516.824 459.391 518.11 456.325C519.396 453.26 519.665 449.575 518.917 445.272C518.207 441.189 516.528 438.071 513.88 435.916C511.342 433.743 508.118 432.2 504.208 431.289C500.389 430.247 496.132 429.623 491.435 429.417C486.738 429.21 481.931 429.023 477.013 428.855C472.187 428.557 467.397 428.14 462.642 427.602C457.869 426.954 453.47 425.843 449.445 424.269C445.511 422.566 442.133 420.141 439.312 416.993C436.583 413.717 434.748 409.375 433.808 403.968C432.772 398.009 433.094 392.667 434.773 387.942C436.433 383.106 439.01 378.963 442.503 375.514C446.086 371.935 450.301 369.042 455.147 366.836C460.084 364.5 465.256 362.862 470.662 361.921C476.731 360.866 482.484 360.605 487.919 361.138C493.355 361.671 498.272 363.146 502.672 365.564C507.181 367.963 510.952 371.343 513.984 375.705C517.107 379.936 519.344 385.288 520.697 391.76L505.8 394.35ZM567.871 361.561L528.478 368.41L526.176 355.169L620.686 338.737L622.988 351.978L583.595 358.827L601.84 463.765L586.116 466.499L567.871 361.561ZM633.798 336.457L689.412 326.788C700.667 324.832 709.919 326.065 717.168 330.489C724.527 334.893 729.041 341.896 730.71 351.495C731.957 358.668 731.396 365.245 729.025 371.228C726.765 377.191 722.222 381.789 715.395 385.022L715.452 385.353C718.988 385.421 721.939 386.045 724.304 387.225C726.779 388.386 728.816 389.965 730.413 391.96C732.102 393.827 733.452 396.036 734.464 398.588C735.587 401.122 736.563 403.794 737.393 406.605C738.112 409.436 738.786 412.331 739.415 415.291C740.043 418.252 740.827 421.128 741.767 423.92C742.707 426.712 743.794 429.365 745.027 431.879C746.351 434.264 748.013 436.305 750.014 438.004L732.469 441.054C731.154 440.032 730.094 438.511 729.288 436.491C728.593 434.452 727.969 432.173 727.418 429.655C726.847 427.026 726.247 424.231 725.619 421.271C724.991 418.311 724.151 415.444 723.101 412.671C722.16 409.879 721.139 407.271 720.035 404.849C718.913 402.315 717.471 400.236 715.711 398.609C713.931 396.872 711.786 395.654 709.277 394.953C706.749 394.142 703.554 394.072 699.692 394.744L661.292 401.42L670.069 451.903L654.345 454.637L633.798 336.457ZM691.762 382.481C695.403 381.848 698.831 380.968 702.046 379.84C705.26 378.713 707.947 377.166 710.106 375.199C712.356 373.103 713.968 370.606 714.942 367.708C716.007 364.681 716.166 361.015 715.418 356.712C714.382 350.753 711.882 346.186 707.92 343.01C703.957 339.834 698.279 338.888 690.886 340.174L651.824 346.965L658.99 388.179L691.762 382.481ZM779.522 382.57L819.577 375.606L790.298 323.913L789.967 323.971L779.522 382.57ZM779.216 311.175L796.596 308.153L863.322 418.304L845.942 421.325L826.845 387.984L776.859 396.674L769.804 434.563L753.749 437.354L779.216 311.175Z" fill="white"/>
<rect x="203.831" y="539.046" width="416.216" height="220" rx="110" transform="rotate(6.48303 203.831 539.046)" fill="black" fill-opacity="0.9"/>
<path d="M277.009 613.902L237.281 609.387L238.798 596.033L334.113 606.864L332.596 620.218L292.867 615.704L280.841 721.535L264.983 719.733L277.009 613.902ZM349.746 669.003C349.063 675.012 349.165 681.054 350.053 687.129C350.953 693.093 352.807 698.602 355.615 703.655C358.422 708.708 362.277 712.979 367.178 716.466C372.092 719.843 378.166 721.942 385.4 722.764C392.633 723.586 399.023 722.903 404.569 720.715C410.129 718.416 414.843 715.12 418.713 710.825C422.582 706.531 425.625 701.578 427.84 695.969C430.069 690.248 431.524 684.383 432.207 678.373C432.89 672.364 432.781 666.377 431.881 660.414C430.993 654.338 429.145 648.774 426.338 643.721C423.531 638.668 419.67 634.453 414.756 631.076C409.854 627.589 403.787 625.434 396.553 624.612C389.32 623.79 382.923 624.528 377.364 626.827C371.818 629.015 367.11 632.256 363.24 636.551C359.37 640.845 356.322 645.853 354.093 651.574C351.878 657.184 350.429 662.993 349.746 669.003ZM333.888 667.201C334.811 659.077 336.865 651.42 340.049 644.229C343.357 636.94 347.732 630.674 353.175 625.431C358.618 620.188 365.097 616.247 372.611 613.606C380.125 610.966 388.612 610.183 398.071 611.258C407.53 612.333 415.624 615 422.355 619.259C429.085 623.518 434.514 628.813 438.641 635.143C442.769 641.474 445.571 648.555 447.048 656.388C448.649 664.123 448.988 672.052 448.065 680.175C447.142 688.299 445.026 696.005 441.718 703.294C438.534 710.485 434.22 716.702 428.778 721.945C423.335 727.188 416.856 731.129 409.342 733.77C401.841 736.299 393.36 737.026 383.901 735.951C374.442 734.876 366.341 732.265 359.598 728.117C352.868 723.858 347.439 718.563 343.312 712.233C339.184 705.902 336.32 698.87 334.719 691.136C333.242 683.303 332.965 675.324 333.888 667.201ZM474.161 622.779L530.248 629.152C541.599 630.442 550.13 634.229 555.841 640.514C561.663 646.812 564.024 654.802 562.924 664.483C562.102 671.717 559.712 677.87 555.754 682.944C551.907 688.03 546.253 691.164 538.792 692.345L538.754 692.679C542.128 693.738 544.783 695.167 546.721 696.966C548.769 698.777 550.279 700.864 551.25 703.229C552.346 705.495 553.02 707.995 553.273 710.729C553.637 713.476 553.821 716.315 553.826 719.246C553.72 722.165 553.552 725.133 553.322 728.15C553.092 731.168 553.035 734.148 553.151 737.092C553.267 740.036 553.563 742.888 554.039 745.647C554.638 748.308 555.659 750.735 557.1 752.928L539.406 750.917C538.433 749.566 537.843 747.808 537.638 745.644C537.545 743.491 537.588 741.129 537.767 738.557C537.96 735.873 538.171 733.023 538.401 730.006C538.631 726.988 538.632 724.001 538.405 721.045C538.288 718.101 538.042 715.311 537.665 712.676C537.301 709.929 536.503 707.528 535.271 705.471C534.052 703.304 532.337 701.531 530.127 700.152C527.929 698.663 524.882 697.697 520.988 697.254L482.261 692.853L476.475 743.766L460.617 741.964L474.161 622.779ZM516.83 683.255C520.502 683.672 524.039 683.793 527.441 683.615C530.842 683.438 533.856 682.71 536.481 681.43C539.231 680.052 541.48 678.109 543.23 675.603C545.105 672.998 546.288 669.525 546.781 665.185C547.464 659.176 546.351 654.09 543.443 649.927C540.534 645.764 535.352 643.259 527.896 642.411L488.501 637.935L483.778 679.499L516.83 683.255Z" fill="white"/>
</svg>
