<svg width="905" height="681" viewBox="0 0 905 681" fill="none" xmlns="http://www.w3.org/2000/svg">
<rect x="189.445" y="252.183" width="675.811" height="220" rx="110" transform="rotate(6.54846 189.445 252.183)" fill="black" fill-opacity="0.9"/>
<path d="M301.959 353.462C302.053 344.792 299.646 338.259 294.739 333.863C289.957 329.368 283.449 326.648 275.215 325.703C271.877 325.32 268.556 325.277 265.252 325.574C261.949 325.871 258.928 326.652 256.19 327.916C253.563 329.192 251.318 331.077 249.454 333.568C247.713 335.961 246.62 339.105 246.173 343C245.751 346.672 246.463 349.797 248.309 352.376C250.279 354.857 252.961 357.025 256.356 358.881C259.862 360.749 263.838 362.445 268.285 363.97C272.745 365.384 277.248 366.916 281.793 368.565C286.45 370.227 290.97 372.098 295.353 374.18C299.749 376.15 303.581 378.619 306.848 381.587C310.226 384.568 312.748 388.127 314.416 392.264C316.194 396.414 316.745 401.437 316.068 407.334C315.34 413.677 313.267 418.963 309.85 423.193C306.558 427.324 302.52 430.581 297.737 432.963C292.967 435.234 287.73 436.662 282.026 437.247C276.421 437.957 270.892 437.998 265.44 437.373C258.763 436.606 252.517 435.044 246.7 432.685C240.994 430.339 236.052 427.235 231.873 423.373C227.818 419.413 224.756 414.665 222.686 409.129C220.74 403.494 220.182 397.06 221.012 389.828L236.033 391.552C235.458 396.559 235.906 401.007 237.376 404.896C238.97 408.687 241.191 411.929 244.038 414.624C246.997 417.331 250.526 419.483 254.627 421.081C258.727 422.679 263.003 423.734 267.454 424.245C271.015 424.653 274.613 424.728 278.251 424.469C281.999 424.223 285.409 423.487 288.481 422.262C291.566 420.925 294.158 418.968 296.258 416.39C298.357 413.813 299.656 410.355 300.154 406.015C300.627 401.898 299.897 398.432 297.966 395.618C296.145 392.816 293.489 390.425 289.996 388.446C286.627 386.368 282.719 384.567 278.271 383.042C273.824 381.516 269.266 379.979 264.596 378.428C260.051 376.779 255.574 375.025 251.165 373.166C246.769 371.196 242.863 368.887 239.446 366.24C236.154 363.495 233.599 360.214 231.783 356.398C230.09 352.483 229.557 347.8 230.183 342.348C230.872 336.339 232.69 331.306 235.636 327.247C238.595 323.077 242.237 319.832 246.562 317.51C251.011 315.089 255.871 313.505 261.143 312.758C266.539 311.911 271.963 311.801 277.415 312.427C283.535 313.13 289.126 314.504 294.19 316.551C299.254 318.598 303.554 321.403 307.091 324.965C310.739 328.541 313.401 332.848 315.077 337.888C316.877 342.83 317.512 348.596 316.981 355.186L301.959 353.462ZM424.926 368.592C424.116 359.931 420.894 353.136 415.26 348.205C409.736 343.287 402.802 340.349 394.457 339.391C387.336 338.573 381.063 339.206 375.638 341.289C370.324 343.385 365.736 346.522 361.875 350.701C358.137 354.781 355.157 359.625 352.935 365.232C350.713 370.839 349.245 376.759 348.529 382.99C347.75 389.777 347.788 396.32 348.643 402.619C349.511 408.806 351.297 414.366 354 419.298C356.827 424.132 360.647 428.178 365.459 431.436C370.27 434.694 376.237 436.732 383.358 437.55C388.588 438.15 393.301 437.846 397.499 436.636C401.82 435.329 405.6 433.339 408.837 430.666C412.199 427.896 414.958 424.492 417.112 420.455C419.266 416.419 420.791 411.972 421.687 407.114L437.543 408.934C434.261 423.777 427.746 434.866 417.998 442.202C408.249 449.539 395.753 452.332 380.509 450.582C371.274 449.522 363.386 447.038 356.845 443.13C350.317 439.112 345.091 434.059 341.167 427.972C337.244 421.884 334.548 414.924 333.08 407.089C331.723 399.267 331.543 391.017 332.539 382.338C333.536 373.659 335.692 365.677 339.008 358.391C342.338 350.995 346.665 344.727 351.989 339.589C357.425 334.464 363.834 330.69 371.214 328.268C378.718 325.747 387.033 325.01 396.157 326.058C402.388 326.773 408.189 328.285 413.561 330.592C418.933 332.9 423.603 335.916 427.573 339.641C431.542 343.366 434.692 347.843 437.023 353.071C439.366 358.187 440.619 363.968 440.781 370.412L424.926 368.592ZM465.71 336.917L521.79 343.354C533.139 344.657 541.666 348.454 547.37 354.746C553.185 361.05 555.537 369.042 554.425 378.723C553.595 385.955 551.198 392.106 547.234 397.175C543.381 402.257 537.724 405.384 530.261 406.557L530.223 406.891C533.596 407.954 536.25 409.386 538.185 411.187C540.232 413 541.739 415.089 542.708 417.455C543.8 419.723 544.471 422.224 544.721 424.958C545.082 427.705 545.264 430.544 545.265 433.475C545.156 436.394 544.984 439.362 544.751 442.379C544.517 445.396 544.457 448.376 544.57 451.321C544.683 454.265 544.975 457.117 545.448 459.877C546.044 462.538 547.062 464.966 548.501 467.16L530.809 465.129C529.837 463.778 529.25 462.019 529.047 459.854C528.956 457.702 529.002 455.339 529.184 452.767C529.38 450.084 529.594 447.234 529.828 444.217C530.061 441.2 530.066 438.213 529.842 435.256C529.729 432.312 529.485 429.522 529.111 426.886C528.75 424.139 527.955 421.737 526.726 419.679C525.509 417.51 523.796 415.735 521.588 414.354C519.391 412.862 516.346 411.893 512.452 411.446L473.73 407.001L467.886 457.906L452.03 456.086L465.71 336.917ZM508.31 397.442C511.982 397.863 515.518 397.988 518.92 397.814C522.322 397.641 525.337 396.916 527.963 395.639C530.714 394.264 532.966 392.324 534.719 389.82C536.596 387.217 537.784 383.746 538.282 379.406C538.972 373.398 537.865 368.31 534.961 364.144C532.057 359.978 526.878 357.467 519.423 356.611L480.033 352.089L475.263 393.648L508.31 397.442ZM580.635 350.109L596.491 351.929L582.811 471.099L566.956 469.279L580.635 350.109ZM632.464 413.892L663.508 417.456C672.508 418.602 679.284 417.519 683.835 414.209C688.498 410.911 691.238 405.701 692.055 398.58C692.873 391.459 691.378 385.82 687.571 381.662C683.888 377.407 677.541 374.762 668.528 373.727L637.484 370.163L632.464 413.892ZM623.161 354.991L675.402 360.988C687.419 362.367 696.129 366.524 701.534 373.457C707.063 380.292 709.188 389.273 707.911 400.4C706.634 411.527 702.522 419.849 695.575 425.364C688.74 430.893 679.321 432.912 667.316 431.421L630.931 427.244L625.337 475.98L609.481 474.16L623.161 354.991ZM756.893 383.871L717.17 379.311L718.703 365.958L814.005 376.898L812.472 390.251L772.749 385.691L760.602 491.508L744.746 489.688L756.893 383.871Z" fill="white"/>
<rect x="489" y="128.73" width="220" height="220" rx="110" transform="rotate(-11.9973 489 128.73)" fill="black" fill-opacity="0.9"/>
<path d="M596.786 226.189L644.277 216.097L647.071 229.243L599.579 239.335L596.786 226.189Z" fill="white"/>
<rect x="19.327" y="107.227" width="517.94" height="220" rx="110" transform="rotate(-6.84452 19.327 107.227)" fill="black" fill-opacity="0.8"/>
<path d="M165.669 231.684C166.149 235.687 166.011 239.708 165.255 243.747C164.611 247.772 163.085 251.509 160.679 254.956C158.37 258.279 155.05 261.159 150.717 263.597C146.483 265.91 141.03 267.467 134.357 268.268C123.237 269.603 114.328 267.739 107.629 262.677C100.916 257.504 96.8795 249.247 95.5181 237.904L94.6371 230.565L110.483 228.663L111.084 233.667C111.498 237.114 112.156 240.25 113.059 243.074C113.962 245.899 115.208 248.288 116.796 250.24C118.495 252.18 120.641 253.614 123.235 254.544C125.926 255.349 129.217 255.517 133.109 255.05C140.338 254.183 145.052 251.643 147.254 247.43C149.567 243.205 150.33 237.811 149.542 231.25L139.091 144.179L154.937 142.277L165.669 231.684ZM209.79 206.591L250.156 201.745L223.639 148.583L223.306 148.623L209.79 206.591ZM213.244 135.279L230.758 133.176L291.591 246.688L274.077 248.79L256.762 214.489L206.387 220.535L197.348 258L181.168 259.942L213.244 135.279ZM342.556 240.57L324.541 242.733L268.379 128.661L285.393 126.619L331.814 225.785L332.147 225.745L354.115 118.37L370.629 116.388L342.556 240.57ZM404.61 183.206L444.976 178.361L418.46 125.198L418.126 125.238L404.61 183.206ZM408.064 111.894L425.578 109.792L486.412 223.303L468.897 225.405L451.582 191.104L401.208 197.151L392.168 234.615L375.988 236.557L408.064 111.894Z" fill="white"/>
</svg>
