<svg width="920" height="401" viewBox="0 0 920 401" fill="none" xmlns="http://www.w3.org/2000/svg">
<rect y="185.659" width="893.169" height="220" rx="110" transform="rotate(-11.9973 0 185.659)" fill="#3A34A7"/>
<path d="M107.973 228.554L68.8627 236.865L66.069 223.719L159.902 203.779L162.695 216.925L123.585 225.236L145.725 329.422L130.114 332.739L107.973 228.554ZM172.92 201.012L188.531 197.695L199.252 248.144L261.04 235.014L250.319 184.564L265.931 181.247L290.865 298.579L275.253 301.896L263.834 248.16L202.046 261.29L213.465 315.026L197.854 318.344L172.92 201.012ZM291.514 175.81L346.729 164.076C357.903 161.702 367.195 162.59 374.603 166.74C382.121 170.868 386.893 177.697 388.919 187.228C390.432 194.349 390.116 200.943 387.97 207.01C385.934 213.053 381.564 217.817 374.863 221.302L374.932 221.631C378.468 221.567 381.44 222.08 383.847 223.172C386.364 224.24 388.458 225.741 390.129 227.676C391.886 229.478 393.318 231.636 394.424 234.149C395.64 236.638 396.715 239.272 397.649 242.051C398.474 244.853 399.255 247.721 399.993 250.656C400.731 253.59 401.622 256.435 402.665 259.191C403.709 261.946 404.894 264.557 406.219 267.023C407.631 269.357 409.368 271.335 411.431 272.957L394.012 276.659C392.66 275.687 391.544 274.206 390.663 272.218C389.892 270.206 389.184 267.952 388.539 265.456C387.871 262.85 387.168 260.079 386.43 257.145C385.691 254.21 384.746 251.377 383.593 248.645C382.549 245.89 381.431 243.322 380.238 240.942C379.022 238.452 377.504 236.428 375.684 234.868C373.841 233.199 371.653 232.061 369.119 231.454C366.563 230.738 363.367 230.787 359.533 231.602L321.408 239.704L332.059 289.824L316.448 293.142L291.514 175.81ZM351.152 219.643C354.767 218.874 358.16 217.867 361.33 216.621C364.5 215.375 367.127 213.729 369.212 211.683C371.382 209.504 372.9 206.949 373.765 204.017C374.717 200.952 374.739 197.283 373.831 193.011C372.574 187.095 369.906 182.624 365.828 179.597C361.75 176.571 356.041 175.838 348.701 177.397L309.919 185.639L318.614 226.557L351.152 219.643ZM404.009 151.904L485.024 134.688L487.818 147.834L422.415 161.733L430.342 199.036L491.308 186.08L494.102 199.226L433.135 212.182L441.761 252.772L507.657 238.768L510.451 251.915L428.943 269.236L404.009 151.904ZM504.469 130.555L585.484 113.339L588.278 126.486L522.874 140.384L530.802 177.687L591.768 164.731L594.562 177.878L533.595 190.834L542.221 231.423L608.117 217.42L610.911 230.566L529.403 247.887L504.469 130.555ZM626.808 208.124L645.049 204.247L648.925 222.488L630.685 226.364L626.808 208.124ZM729.035 174.892C729.874 178.836 730.097 182.853 729.707 186.944C729.426 191.011 728.243 194.869 726.156 198.519C724.155 202.036 721.107 205.202 717.011 208.019C713.001 210.703 707.71 212.744 701.136 214.141C690.181 216.469 681.14 215.413 674.014 210.974C666.864 206.424 662.102 198.563 659.727 187.388L658.19 180.158L673.802 176.84L674.849 181.77C675.571 185.166 676.509 188.23 677.662 190.962C678.815 193.694 680.27 195.961 682.027 197.763C683.893 199.542 686.16 200.778 688.826 201.471C691.578 202.031 694.872 201.904 698.706 201.089C705.827 199.576 710.295 196.622 712.109 192.229C714.033 187.813 714.309 182.373 712.935 175.909L694.706 90.1287L710.318 86.8111L729.035 174.892ZM811.047 101.301C808.378 93.0521 804.018 87.6237 797.968 85.0164C792.004 82.2762 784.969 81.7675 776.862 83.4903C773.575 84.1888 770.413 85.2042 767.376 86.5367C764.339 87.8691 761.723 89.57 759.529 91.6392C757.445 93.6851 755.915 96.1857 754.94 99.1409C754.052 101.963 754.015 105.292 754.829 109.126C755.598 112.741 757.267 115.478 759.837 117.336C762.494 119.062 765.727 120.264 769.535 120.943C773.453 121.599 777.763 121.943 782.464 121.974C787.142 121.896 791.898 121.916 796.732 122.034C801.675 122.128 806.556 122.465 811.374 123.044C816.168 123.514 820.586 124.636 824.627 126.411C828.778 128.163 832.301 130.734 835.198 134.126C838.204 137.495 840.323 142.083 841.557 147.889C842.884 154.134 842.601 159.804 840.707 164.901C838.899 169.866 836.107 174.237 832.33 178.017C828.53 181.687 824.019 184.707 818.798 187.076C813.709 189.531 808.481 191.329 803.112 192.47C796.539 193.867 790.12 194.372 783.855 193.986C777.699 193.577 772.027 192.206 766.836 189.874C761.733 187.409 757.319 183.881 753.595 179.291C749.958 174.568 747.383 168.646 745.87 161.525L760.659 158.382C761.707 163.312 763.546 167.387 766.177 170.606C768.894 173.693 772.031 176.061 775.587 177.709C779.253 179.335 783.284 180.253 787.68 180.464C792.076 180.675 796.465 180.315 800.847 179.383C804.352 178.638 807.788 177.565 811.154 176.162C814.63 174.737 817.629 172.954 820.151 170.815C822.651 168.567 824.486 165.887 825.656 162.775C826.827 159.664 826.959 155.972 826.051 151.7C825.189 147.646 823.395 144.592 820.669 142.538C818.052 140.461 814.773 139.039 810.832 138.274C806.977 137.376 802.698 136.911 797.997 136.879C793.296 136.848 788.485 136.84 783.565 136.855C778.731 136.737 773.928 136.498 769.157 136.138C764.363 135.668 759.925 134.722 755.844 133.299C751.85 131.743 748.384 129.446 745.448 126.406C742.599 123.233 740.603 118.962 739.463 113.594C738.205 107.678 738.328 102.328 739.83 97.5429C741.309 92.6486 743.729 88.4129 747.091 84.836C750.54 81.1262 754.644 78.0785 759.404 75.693C764.25 73.1746 769.357 71.345 774.726 70.2042C780.751 68.9238 786.49 68.4485 791.941 68.7785C797.393 69.1085 802.362 70.3998 806.848 72.6525C811.444 74.8819 815.338 78.1192 818.53 82.3644C821.808 86.4767 824.244 91.7415 825.837 98.1586L811.047 101.301Z" fill="#FF3BC1"/>
</svg>
