<svg width="622" height="565" viewBox="0 0 622 565" fill="none" xmlns="http://www.w3.org/2000/svg">
<rect y="112.659" width="541.002" height="220" rx="110" transform="rotate(-11.9973 0 112.659)" fill="black" fill-opacity="0.8"/>
<path d="M78.3938 148.1L94.9911 144.573L176.999 226.59L177.328 226.52L157.108 131.372L171.898 128.229L196.832 245.561L179.741 249.193L98.4361 168.058L98.1074 168.127L118.117 262.289L103.328 265.432L78.3938 148.1ZM197.152 122.863L278.167 105.646L280.961 118.793L215.557 132.692L223.484 169.995L284.451 157.039L287.245 170.185L226.278 183.141L234.904 223.731L300.8 209.727L303.594 222.874L222.086 240.195L197.152 122.863ZM337.666 152.6L286.93 103.784L305.664 99.8031L344.658 139.435L365.48 87.0917L382.899 83.39L356.235 148.654L410.298 200.198L391.236 204.249L349.383 162.476L327.147 217.868L309.728 221.57L337.666 152.6ZM427.487 87.655L388.376 95.9663L385.583 82.8198L479.415 62.8797L482.209 76.0262L443.098 84.3374L465.239 188.523L449.627 191.84L427.487 87.655Z" fill="white"/>
<rect x="257.199" y="225.84" width="327.117" height="220" rx="110" transform="rotate(10.4589 257.199 225.84)" fill="black" fill-opacity="0.9"/>
<path d="M298.713 388.342L317.051 391.727L313.666 410.065L295.328 406.68L298.713 388.342ZM405.882 396.679C405.15 400.644 403.822 404.442 401.899 408.073C400.086 411.725 397.518 414.838 394.196 417.414C391.003 419.9 386.976 421.662 382.115 422.701C377.384 423.65 371.715 423.514 365.106 422.295C354.092 420.261 346.14 415.832 341.25 409.007C336.38 402.072 334.982 392.987 337.056 381.753L338.398 374.484L354.092 377.381L353.178 382.337C352.547 385.752 352.243 388.941 352.265 391.907C352.287 394.872 352.766 397.523 353.701 399.86C354.747 402.216 356.369 404.224 358.569 405.883C360.899 407.452 363.991 408.592 367.846 409.304C375.005 410.626 380.262 409.603 383.617 406.236C387.082 402.889 389.414 397.967 390.614 391.469L406.533 305.23L422.228 308.127L405.882 396.679ZM509.784 359.995C510.469 351.352 508.513 344.67 503.918 339.949C499.453 335.138 493.145 331.981 484.995 330.476C481.691 329.867 478.381 329.597 475.065 329.668C471.749 329.74 468.682 330.312 465.864 331.387C463.156 332.481 460.787 334.208 458.758 336.567C456.858 338.836 455.553 341.898 454.841 345.752C454.17 349.387 454.667 352.554 456.333 355.253C458.129 357.863 460.657 360.208 463.918 362.291C467.288 364.394 471.139 366.357 475.472 368.182C479.825 369.897 484.213 371.732 488.636 373.687C493.168 375.663 497.55 377.838 501.781 380.214C506.033 382.479 509.687 385.204 512.743 388.388C515.91 391.592 518.184 395.315 519.566 399.556C521.057 403.817 521.263 408.867 520.186 414.704C519.027 420.982 516.599 426.114 512.902 430.102C509.335 433.999 505.085 436.973 500.15 439.023C495.237 440.963 489.914 442.031 484.184 442.226C478.543 442.551 473.024 442.216 467.627 441.22C461.019 440 454.894 438.015 449.251 435.265C443.719 432.535 438.999 429.101 435.094 424.964C431.318 420.736 428.587 415.79 426.899 410.126C425.342 404.371 425.224 397.915 426.545 390.756L441.414 393.5C440.499 398.457 440.643 402.925 441.844 406.905C443.176 410.795 445.17 414.182 447.827 417.064C450.594 419.967 453.969 422.355 457.951 424.229C461.933 426.103 466.127 427.446 470.532 428.26C474.057 428.91 477.642 429.23 481.289 429.22C485.045 429.23 488.498 428.729 491.646 427.715C494.814 426.592 497.534 424.816 499.804 422.388C502.075 419.96 503.607 416.598 504.4 412.302C505.152 408.227 504.66 404.72 502.925 401.78C501.3 398.86 498.813 396.294 495.463 394.081C492.243 391.779 488.467 389.715 484.134 387.89C479.802 386.065 475.359 384.22 470.806 382.355C466.383 380.399 462.036 378.344 457.765 376.189C453.513 373.923 449.773 371.354 446.545 368.48C443.448 365.517 441.123 362.069 439.571 358.138C438.149 354.117 437.936 349.408 438.933 344.012C440.031 338.064 442.188 333.166 445.404 329.318C448.64 325.36 452.495 322.37 456.968 320.348C461.572 318.237 466.529 316.988 471.839 316.602C477.28 316.125 482.699 316.385 488.096 317.382C494.153 318.5 499.638 320.253 504.551 322.64C509.463 325.028 513.562 328.119 516.847 331.914C520.243 335.73 522.605 340.209 523.934 345.352C525.393 350.405 525.633 356.201 524.653 362.74L509.784 359.995Z" fill="white"/>
</svg>
