<svg width="710" height="629" viewBox="0 0 710 629" fill="none" xmlns="http://www.w3.org/2000/svg">
<rect x="130.352" y="102.519" width="567.502" height="220" rx="110" transform="rotate(17.9418 130.352 102.519)" fill="black" fill-opacity="0.8"/>
<path d="M180.597 172.355L196.74 177.582L226.871 289.583L227.191 289.686L257.155 197.145L271.54 201.802L234.589 315.921L217.967 310.539L188.004 199.652L187.684 199.549L158.03 291.132L143.645 286.474L180.597 172.355ZM286.418 269.661C284.555 275.415 283.455 281.357 283.118 287.488C282.816 293.511 283.538 299.279 285.286 304.789C287.033 310.299 289.962 315.25 294.073 319.642C298.219 323.928 303.755 327.192 310.681 329.434C317.607 331.677 324.005 332.277 329.875 331.235C335.78 330.086 341.056 327.791 345.702 324.351C350.347 320.911 354.313 316.662 357.599 311.604C360.919 306.44 363.511 300.981 365.374 295.227C367.237 289.473 368.32 283.584 368.622 277.56C368.959 271.43 368.254 265.61 366.506 260.099C364.758 254.589 361.812 249.691 357.666 245.406C353.556 241.014 348.037 237.697 341.111 235.454C334.185 233.211 327.77 232.665 321.865 233.813C315.994 234.856 310.736 237.097 306.09 240.537C301.445 243.977 297.462 248.28 294.141 253.444C290.855 258.502 288.281 263.907 286.418 269.661ZM271.234 264.745C273.753 256.966 277.286 249.87 281.836 243.455C286.526 236.969 292.059 231.697 298.435 227.64C304.811 223.582 311.943 221.006 319.832 219.911C327.721 218.816 336.194 219.735 345.251 222.668C354.308 225.6 361.712 229.822 367.462 235.334C373.211 240.845 377.48 247.113 380.268 254.137C383.056 261.161 384.395 268.659 384.287 276.629C384.319 284.527 383.076 292.365 380.558 300.143C378.039 307.922 374.435 315.054 369.744 321.541C365.195 327.956 359.733 333.191 353.357 337.249C346.981 341.306 339.848 343.882 331.959 344.977C324.105 345.966 315.649 344.993 306.592 342.061C297.535 339.128 290.114 334.96 284.33 329.555C278.58 324.044 274.311 317.776 271.524 310.751C268.736 303.727 267.326 296.266 267.293 288.368C267.402 280.398 268.715 272.523 271.234 264.745ZM399.909 355.324L425.162 363.501C426.867 364.053 429.033 364.636 431.659 365.251C434.32 365.76 437.244 366 440.431 365.973C443.653 365.839 446.96 365.261 450.351 364.24C453.849 363.254 457.252 361.471 460.559 358.893C463.866 356.314 467.006 352.798 469.978 348.346C473.092 343.821 475.787 338.042 478.064 331.009C480.272 324.19 481.546 317.892 481.886 312.116C482.367 306.268 481.666 300.978 479.784 296.249C478.042 291.447 475.084 287.31 470.911 283.84C466.771 280.263 461.185 277.336 454.153 275.059L428.58 266.778L399.909 355.324ZM417.536 249.075L456.695 261.755C474.276 267.447 486.359 276.304 492.944 288.325C499.529 300.347 499.855 315.521 493.921 333.848C490.815 343.438 486.99 351.617 482.444 358.386C477.932 365.048 472.61 370.212 466.479 373.877C460.382 377.436 453.44 379.426 445.651 379.847C437.863 380.269 429.227 378.944 419.743 375.873L380.585 363.194L417.536 249.075ZM530.073 285.514L608.869 311.028L604.729 323.815L541.117 303.217L529.369 339.499L588.666 358.699L584.526 371.485L525.229 352.285L512.446 391.763L576.538 412.516L572.397 425.302L493.122 399.633L530.073 285.514Z" fill="white"/>
<rect y="412.996" width="327.117" height="220" rx="110" transform="rotate(-11.9973 0 412.996)" fill="black" fill-opacity="0.9"/>
<path d="M100.437 547.319L118.678 543.442L122.554 561.683L104.314 565.559L100.437 547.319ZM202.664 514.087C203.503 518.031 203.726 522.049 203.336 526.139C203.056 530.206 201.872 534.065 199.785 537.714C197.784 541.231 194.736 544.398 190.64 547.215C186.63 549.899 181.339 551.939 174.765 553.336C163.81 555.664 154.769 554.608 147.643 550.169C140.493 545.619 135.731 537.758 133.356 526.583L131.819 519.353L147.431 516.035L148.478 520.965C149.2 524.361 150.138 527.425 151.291 530.157C152.444 532.889 153.899 535.156 155.656 536.958C157.522 538.737 159.789 539.973 162.455 540.666C165.208 541.226 168.501 541.099 172.335 540.284C179.456 538.771 183.924 535.818 185.738 531.424C187.663 527.008 187.938 521.568 186.564 515.104L168.335 429.324L183.947 426.006L202.664 514.087ZM284.676 440.497C282.007 432.247 277.647 426.819 271.597 424.212C265.633 421.471 258.598 420.963 250.491 422.685C247.204 423.384 244.042 424.399 241.005 425.732C237.968 427.064 235.352 428.765 233.158 430.834C231.074 432.88 229.544 435.381 228.569 438.336C227.681 441.158 227.644 444.487 228.459 448.321C229.227 451.936 230.896 454.673 233.467 456.532C236.123 458.257 239.356 459.459 243.164 460.139C247.082 460.794 251.392 461.138 256.093 461.17C260.771 461.092 265.527 461.111 270.361 461.229C275.304 461.324 280.185 461.66 285.003 462.24C289.797 462.709 294.215 463.832 298.256 465.606C302.407 467.358 305.93 469.929 308.827 473.322C311.833 476.69 313.952 481.278 315.186 487.084C316.513 493.329 316.23 499 314.336 504.097C312.528 509.061 309.736 513.433 305.959 517.212C302.159 520.882 297.648 523.902 292.427 526.271C287.338 528.726 282.11 530.525 276.741 531.665C270.168 533.062 263.749 533.568 257.484 533.181C251.328 532.772 245.656 531.401 240.465 529.069C235.362 526.604 230.948 523.077 227.224 518.486C223.587 513.763 221.012 507.841 219.499 500.72L234.288 497.577C235.336 502.507 237.175 506.582 239.806 509.801C242.523 512.888 245.66 515.256 249.216 516.904C252.882 518.53 256.913 519.448 261.309 519.659C265.705 519.87 270.094 519.51 274.476 518.578C277.981 517.833 281.417 516.76 284.783 515.357C288.259 513.932 291.258 512.15 293.78 510.011C296.28 507.762 298.115 505.082 299.285 501.971C300.456 498.859 300.588 495.167 299.68 490.895C298.818 486.841 297.024 483.787 294.298 481.733C291.681 479.656 288.402 478.234 284.461 477.469C280.606 476.571 276.328 476.106 271.626 476.074C266.925 476.043 262.114 476.035 257.194 476.05C252.36 475.932 247.557 475.693 242.786 475.333C237.992 474.863 233.554 473.917 229.473 472.494C225.479 470.939 222.013 468.641 219.077 465.601C216.228 462.428 214.232 458.157 213.092 452.789C211.834 446.873 211.957 441.523 213.459 436.738C214.938 431.844 217.359 427.608 220.72 424.031C224.169 420.321 228.273 417.274 233.033 414.888C237.879 412.37 242.986 410.54 248.355 409.399C254.38 408.119 260.119 407.644 265.57 407.974C271.022 408.304 275.991 409.595 280.477 411.848C285.073 414.077 288.967 417.314 292.159 421.56C295.437 425.672 297.873 430.937 299.466 437.354L284.676 440.497Z" fill="white"/>
</svg>
