<svg width="783" height="275" viewBox="0 0 783 275" fill="none" xmlns="http://www.w3.org/2000/svg">
<rect x="15.729" width="768.629" height="220" rx="110" transform="rotate(4.09989 15.729 0)" fill="black" fill-opacity="0.9"/>
<path d="M78.9186 113.25L110.087 115.484C119.127 116.244 125.851 114.873 130.256 111.371C134.774 107.877 137.289 102.556 137.801 95.406C138.314 88.2563 136.579 82.6861 132.599 78.6952C128.737 74.6007 122.282 72.2291 113.234 71.5805L82.0656 69.3464L78.9186 113.25ZM67.1073 54.7998L119.557 58.5593C131.622 59.4241 140.502 63.2047 146.198 69.901C152.014 76.4937 154.521 85.3757 153.72 96.547C152.919 107.718 149.167 116.208 142.463 122.015C135.87 127.831 126.545 130.25 114.488 129.274L77.9577 126.655L74.4505 175.586L58.5313 174.445L67.1073 54.7998ZM220.13 136.846L216.623 185.777L200.704 184.636L204.211 135.705L163.031 61.6754L181.966 63.0327L213.742 122.577L252.848 68.1135L270.946 69.4107L220.13 136.846ZM310.61 85.7283L270.729 82.8696L271.689 69.464L367.372 76.3224L366.411 89.728L326.529 86.8694L318.914 193.109L302.995 191.968L310.61 85.7283ZM380.647 77.2739L396.566 78.415L392.878 129.859L455.885 134.375L459.572 82.9312L475.491 84.0723L466.915 203.717L450.996 202.576L454.924 147.781L391.917 143.265L387.99 198.06L372.071 196.919L380.647 77.2739ZM506.507 146.425C506.075 152.458 506.428 158.491 507.568 164.524C508.715 170.445 510.797 175.871 513.812 180.804C516.827 185.736 520.856 189.842 525.898 193.123C530.948 196.292 537.104 198.137 544.365 198.658C551.627 199.178 557.983 198.23 563.434 195.814C568.892 193.286 573.465 189.796 577.153 185.344C580.841 180.892 583.675 175.818 585.655 170.121C587.644 164.312 588.854 158.391 589.287 152.359C589.719 146.326 589.361 140.35 588.214 134.428C587.074 128.395 584.997 122.913 581.982 117.981C578.967 113.048 574.934 108.998 569.884 105.829C564.841 102.548 558.689 100.647 551.428 100.127C544.167 99.606 537.807 100.61 532.348 103.138C526.897 105.555 522.328 108.989 518.64 113.44C514.953 117.892 512.114 123.022 510.126 128.831C508.146 134.528 506.939 140.393 506.507 146.425ZM490.588 145.284C491.172 137.129 492.906 129.393 495.788 122.077C498.791 114.656 502.902 108.214 508.122 102.749C513.342 97.2843 519.651 93.0766 527.049 90.1259C534.447 87.1753 542.893 86.0403 552.389 86.7209C561.885 87.4016 570.083 89.7297 576.985 93.7053C583.886 97.6809 589.53 102.745 593.918 108.899C598.305 115.052 601.399 122.011 603.201 129.776C605.122 137.437 605.79 145.345 605.206 153.5C604.621 161.655 602.828 169.443 599.826 176.863C596.943 184.18 592.892 190.57 587.672 196.035C582.452 201.5 576.143 205.708 568.745 208.658C561.355 211.497 552.912 212.576 543.417 211.896C533.921 211.215 525.718 208.943 518.809 205.079C511.907 201.103 506.263 196.039 501.876 189.885C497.489 183.732 494.334 176.825 492.413 169.164C490.612 161.399 490.003 153.439 490.588 145.284ZM628.725 95.0559L645.65 96.2691L701.701 197.808L702.037 197.832L708.991 100.809L724.072 101.89L715.496 221.535L698.069 220.286L642.448 119.788L642.113 119.764L635.23 215.782L620.149 214.701L628.725 95.0559Z" fill="white"/>
</svg>
