<svg width="892" height="879" viewBox="0 0 892 879" fill="none" xmlns="http://www.w3.org/2000/svg">
<rect x="48.4354" y="314.849" width="675.811" height="220" rx="110" transform="rotate(-0.895744 48.4354 314.849)" fill="black" fill-opacity="0.9"/>
<path d="M114.642 366.245L193.424 365.013L193.634 378.451L130.81 379.434L131.406 417.565L186.503 416.703L186.714 430.142L131.616 431.003L132.475 485.933L116.517 486.182L114.642 366.245ZM211.099 364.737L267.54 363.854C278.963 363.676 287.909 366.336 294.38 371.836C300.963 377.333 304.33 384.954 304.483 394.696C304.596 401.976 303.016 408.385 299.743 413.925C296.581 419.463 291.376 423.297 284.129 425.426L284.134 425.762C287.616 426.38 290.433 427.456 292.585 428.991C294.85 430.523 296.615 432.4 297.882 434.62C299.259 436.727 300.249 439.12 300.851 441.799C301.564 444.476 302.112 447.268 302.494 450.174C302.763 453.082 302.978 456.047 303.137 459.069C303.296 462.091 303.622 465.054 304.116 467.959C304.609 470.864 305.269 473.654 306.095 476.329C307.031 478.891 308.355 481.166 310.066 483.156L292.26 483.434C291.121 482.22 290.311 480.552 289.83 478.432C289.461 476.309 289.2 473.961 289.048 471.387C288.894 468.701 288.737 465.847 288.578 462.825C288.418 459.804 288.036 456.841 287.431 453.938C286.937 451.034 286.334 448.299 285.622 445.734C284.908 443.056 283.808 440.777 282.323 438.896C280.836 436.903 278.907 435.365 276.538 434.282C274.167 433.087 271.022 432.52 267.102 432.581L228.131 433.191L228.932 484.424L212.974 484.674L211.099 364.737ZM261.181 419.232C264.876 419.175 268.4 418.839 271.75 418.227C275.101 417.615 277.996 416.505 280.436 414.899C282.985 413.179 284.967 410.964 286.38 408.253C287.904 405.429 288.632 401.833 288.564 397.466C288.469 391.418 286.713 386.517 283.293 382.762C279.874 379.007 274.413 377.188 266.91 377.306L227.267 377.925L227.921 419.752L261.181 419.232ZM347.855 432.999L388.506 432.364L367.641 376.739L367.305 376.744L347.855 432.999ZM358.681 362.429L376.318 362.153L425.06 481.358L407.422 481.634L393.755 445.723L343.025 446.516L330.152 482.842L313.858 483.097L358.681 362.429ZM435.353 361.23L457.19 360.889L496.561 461.086L532.949 359.705L554.786 359.363L556.661 479.3L541.543 479.537L539.983 379.757L539.647 379.762L503.748 480.128L490.141 480.34L451.122 381.146L450.786 381.152L452.346 480.931L437.228 481.168L435.353 361.23ZM581.343 358.948L664.157 357.653L664.367 371.091L597.511 372.137L598.107 410.268L660.427 409.294L660.637 422.732L598.317 423.706L598.966 465.197L666.326 464.144L666.536 477.583L583.218 478.885L581.343 358.948Z" fill="white"/>
<rect x="259.2" y="494.722" width="590.731" height="220" rx="110" transform="rotate(4.52521 259.2 494.722)" fill="black" fill-opacity="0.9"/>
<path d="M406.333 679.56L389.752 678.247L370.407 575.601L370.072 575.575L334.485 673.873L317.905 672.561L296.721 550.557L312.966 551.843L328.539 653.18L328.874 653.206L363.544 555.846L380.794 557.211L399.382 658.787L399.717 658.813L431.874 561.254L447.784 562.513L406.333 679.56ZM467.3 624.221C466.823 630.25 467.132 636.286 468.226 642.327C469.33 648.256 471.371 653.698 474.349 658.653C477.328 663.607 481.326 667.744 486.344 671.062C491.37 674.268 497.512 676.159 504.77 676.733C512.027 677.308 518.39 676.407 523.858 674.031C529.336 671.543 533.935 668.087 537.655 663.663C541.376 659.239 544.248 654.186 546.27 648.504C548.302 642.71 549.556 636.798 550.033 630.769C550.51 624.74 550.197 618.761 549.094 612.831C547.999 606.79 545.962 601.292 542.984 596.338C540.005 591.383 536.003 587.303 530.976 584.096C525.958 580.778 519.821 578.832 512.563 578.257C505.306 577.683 498.939 578.639 493.461 581.127C487.993 583.503 483.398 586.903 479.678 591.327C475.957 595.752 473.081 600.861 471.05 606.654C469.027 612.337 467.777 618.192 467.3 624.221ZM451.39 622.962C452.035 614.812 453.826 607.089 456.762 599.794C459.82 592.396 463.978 585.984 469.239 580.558C474.499 575.132 480.839 570.972 488.259 568.076C495.679 565.18 504.133 564.108 513.624 564.859C523.114 565.61 531.295 567.999 538.167 572.026C545.039 576.053 550.645 581.159 554.987 587.345C559.328 593.53 562.371 600.512 564.115 608.29C565.979 615.965 566.588 623.878 565.943 632.028C565.298 640.179 563.447 647.953 560.39 655.351C557.453 662.646 553.355 669.006 548.094 674.432C542.834 679.858 536.494 684.019 529.074 686.915C521.663 689.699 513.213 690.715 503.722 689.964C494.232 689.213 486.047 686.88 479.166 682.965C472.294 678.938 466.688 673.832 462.346 667.646C458.005 661.46 454.902 654.53 453.038 646.855C451.294 639.077 450.745 631.113 451.39 622.962ZM590.063 573.774L646.335 578.227C657.724 579.129 666.379 582.623 672.301 588.709C678.335 594.804 680.968 602.708 680.199 612.422C679.625 619.679 677.446 625.911 673.664 631.116C669.993 636.331 664.449 639.656 657.033 641.091L657.006 641.426C660.415 642.37 663.118 643.708 665.115 645.439C667.224 647.179 668.805 649.214 669.856 651.544C671.028 653.771 671.787 656.247 672.133 658.971C672.591 661.703 672.873 664.534 672.978 667.464C672.971 670.384 672.905 673.356 672.778 676.38C672.651 679.403 672.696 682.384 672.913 685.322C673.13 688.26 673.523 691.1 674.092 693.842C674.782 696.48 675.885 698.871 677.401 701.013L659.648 699.608C658.629 698.292 657.98 696.555 657.701 694.398C657.534 692.25 657.496 689.888 657.588 687.311C657.688 684.623 657.802 681.767 657.929 678.744C658.056 675.72 657.955 672.735 657.627 669.788C657.41 666.849 657.068 664.07 656.601 661.449C656.144 658.716 655.264 656.343 653.963 654.33C652.67 652.206 650.896 650.493 648.64 649.19C646.392 647.777 643.315 646.915 639.407 646.606L600.552 643.531L596.51 694.611L580.599 693.352L590.063 573.774ZM634.773 632.757C638.458 633.049 641.997 633.048 645.39 632.755C648.784 632.462 651.771 631.631 654.351 630.262C657.052 628.791 659.234 626.772 660.897 624.208C662.681 621.54 663.745 618.029 664.09 613.675C664.567 607.646 663.281 602.6 660.232 598.539C657.183 594.478 651.918 592.151 644.438 591.559L604.913 588.431L601.613 630.133L634.773 632.757ZM704.713 582.848L720.623 584.107L715.904 643.728L781.249 588.905L801.849 590.535L747.621 634.779L794.395 710.273L774.298 708.682L735.874 644.803L714.473 661.816L711.159 703.685L695.249 702.426L704.713 582.848Z" fill="white"/>
<rect y="136.809" width="658.161" height="220" rx="110" transform="rotate(-11.9973 0 136.809)" fill="black" fill-opacity="0.8"/>
<path d="M78.5581 172.215L133.773 160.481C144.948 158.106 154.239 158.994 161.648 163.145C169.166 167.272 173.938 174.102 175.963 183.633C177.476 190.754 177.16 197.348 175.014 203.414C172.978 209.457 168.609 214.222 161.907 217.707L161.977 218.036C165.513 217.971 168.484 218.485 170.892 219.576C173.409 220.644 175.503 222.146 177.173 224.081C178.93 225.883 180.362 228.04 181.469 230.553C182.685 233.043 183.76 235.677 184.694 238.455C185.518 241.257 186.299 244.126 187.037 247.06C187.776 249.995 188.666 252.84 189.71 255.595C190.753 258.35 191.938 260.961 193.264 263.428C194.676 265.761 196.413 267.739 198.475 269.362L181.056 273.064C179.704 272.091 178.588 270.611 177.708 268.623C176.937 266.611 176.229 264.357 175.584 261.86C174.915 259.254 174.212 256.484 173.474 253.549C172.736 250.615 171.79 247.781 170.637 245.049C169.594 242.294 168.476 239.726 167.283 237.346C166.067 234.857 164.549 232.832 162.729 231.272C160.885 229.603 158.697 228.465 156.164 227.858C153.607 227.142 150.411 227.192 146.577 228.006L108.452 236.108L119.103 286.229L103.492 289.546L78.5581 172.215ZM138.196 216.047C141.811 215.279 145.204 214.272 148.374 213.026C151.544 211.779 154.172 210.133 156.256 208.087C158.426 205.909 159.944 203.353 160.81 200.421C161.762 197.357 161.784 193.688 160.876 189.415C159.618 183.499 156.951 179.028 152.873 176.002C148.794 172.975 143.085 172.242 135.745 173.802L96.9632 182.043L105.659 222.962L138.196 216.047ZM191.054 148.308L272.069 131.092L274.862 144.239L209.459 158.137L217.386 195.44L278.353 182.484L281.146 195.631L220.18 208.587L228.805 249.176L294.702 235.173L297.496 248.319L215.988 265.64L191.054 148.308ZM326.358 191.519L366.126 183.068L334.942 132.502L334.614 132.572L326.358 191.519ZM323.394 120.185L340.648 116.518L411.431 224.107L394.176 227.774L373.85 195.167L324.222 205.713L318.584 243.838L302.644 247.225L323.394 120.185ZM488.074 122.116C484.551 114.162 479.335 108.744 472.425 105.862C465.625 102.956 458.116 102.376 449.9 104.122C442.888 105.612 437.142 108.207 432.661 111.907C428.29 115.584 424.938 120.018 422.606 125.208C420.361 130.265 419.076 135.805 418.753 141.828C418.43 147.851 418.92 153.93 420.224 160.065C421.644 166.747 423.761 172.939 426.575 178.638C429.366 184.228 432.828 188.931 436.959 192.748C441.177 196.432 446.085 199.053 451.683 200.611C457.281 202.169 463.586 202.203 470.598 200.713C475.747 199.619 480.119 197.831 483.713 195.35C487.394 192.736 490.345 189.647 492.564 186.084C494.871 182.388 496.403 178.284 497.162 173.771C497.92 169.259 497.952 164.558 497.256 159.668L512.867 156.35C514.476 171.466 511.827 184.051 504.918 194.107C498.009 204.163 487.051 210.785 472.042 213.975C462.949 215.907 454.68 216.061 447.236 214.437C439.769 212.704 433.207 209.575 427.551 205.052C421.896 200.529 417.126 194.787 413.242 187.826C409.468 180.842 406.673 173.078 404.857 164.532C403.041 155.987 402.547 147.734 403.374 139.772C404.177 131.701 406.286 124.382 409.7 117.817C413.224 111.229 418.099 105.613 424.326 100.969C430.639 96.1926 438.287 92.8498 447.27 90.9408C453.405 89.637 459.386 89.2248 465.213 89.704C471.04 90.1833 476.427 91.5575 481.375 93.8266C486.323 96.0957 490.733 99.3378 494.606 103.553C498.455 107.658 501.482 112.74 503.685 118.799L488.074 122.116ZM546.081 86.6027L506.97 94.914L504.177 81.7675L598.009 61.8274L600.803 74.9738L561.692 83.2851L583.832 187.471L568.221 190.788L546.081 86.6027Z" fill="white"/>
</svg>
