<svg width="923" height="940" viewBox="0 0 923 940" fill="none" xmlns="http://www.w3.org/2000/svg">
<rect x="54.7473" y="119.668" width="720.518" height="220" rx="110" transform="rotate(11.1949 54.7473 119.668)" fill="black" fill-opacity="0.8"/>
<path d="M174.261 231.064C175.056 222.431 173.186 215.724 168.652 210.945C164.249 206.077 157.983 202.839 149.852 201.23C146.556 200.578 143.25 200.266 139.933 200.294C136.617 200.323 133.543 200.856 130.711 201.894C127.99 202.954 125.599 204.65 123.539 206.983C121.61 209.227 120.266 212.272 119.505 216.117C118.787 219.743 119.244 222.916 120.875 225.636C122.637 228.269 125.135 230.647 128.368 232.771C131.711 234.917 135.537 236.93 139.846 238.81C144.177 240.581 148.54 242.472 152.937 244.484C157.444 246.518 161.798 248.749 165.998 251.179C170.22 253.499 173.839 256.27 176.855 259.493C179.98 262.738 182.206 266.489 183.533 270.748C184.969 275.028 185.111 280.08 183.958 285.903C182.719 292.165 180.225 297.266 176.477 301.205C172.861 305.057 168.572 307.976 163.612 309.962C158.674 311.839 153.338 312.838 147.606 312.96C141.961 313.213 136.447 312.806 131.064 311.741C124.471 310.436 118.372 308.373 112.765 305.551C107.268 302.75 102.594 299.256 98.7414 295.068C95.0207 290.793 92.353 285.812 90.7381 280.126C89.2549 274.352 89.2199 267.895 90.6333 260.753L105.466 263.689C104.487 268.633 104.573 273.103 105.723 277.098C107.005 281.005 108.956 284.417 111.575 287.333C114.305 290.271 117.649 292.702 121.606 294.627C125.564 296.552 129.74 297.95 134.135 298.819C137.65 299.515 141.231 299.881 144.878 299.918C148.634 299.976 152.092 299.519 155.253 298.546C158.436 297.464 161.178 295.723 163.48 293.324C165.781 290.925 167.356 287.583 168.204 283.299C169.009 279.233 168.562 275.72 166.865 272.758C165.278 269.818 162.823 267.22 159.502 264.964C156.313 262.62 152.563 260.508 148.254 258.628C143.945 256.748 139.527 254.845 134.998 252.922C130.601 250.91 126.281 248.799 122.037 246.589C117.815 244.269 114.109 241.652 110.918 238.737C107.859 235.734 105.578 232.257 104.077 228.306C102.707 224.267 102.555 219.556 103.62 214.172C104.794 208.239 107.014 203.37 110.279 199.563C113.566 195.647 117.459 192.707 121.958 190.743C126.588 188.691 131.561 187.506 136.876 187.187C142.322 186.781 147.737 187.111 153.121 188.176C159.164 189.372 164.626 191.195 169.507 193.646C174.388 196.096 178.447 199.24 181.683 203.077C185.03 206.936 187.334 211.445 188.597 216.605C189.991 221.676 190.156 227.474 189.093 234L174.261 231.064ZM243.967 222.768L204.744 215.005L207.353 201.821L301.456 220.445L298.847 233.629L259.623 225.867L238.944 330.352L223.288 327.253L243.967 222.768ZM349.364 302.198L339.84 350.32L324.184 347.222L333.708 299.099L301.986 220.55L320.609 224.236L344.787 287.249L390.321 238.033L408.12 241.555L349.364 302.198ZM421.376 244.179L437.033 247.277L416.354 351.763L478.649 364.092L476.04 377.276L398.088 361.848L421.376 244.179ZM512.952 262.303L594.2 278.383L591.59 291.567L525.999 278.586L518.595 315.996L579.737 328.097L577.127 341.281L515.985 329.18L507.929 369.887L574.015 382.966L571.406 396.15L489.663 379.972L512.952 262.303ZM608.678 389.826L634.717 394.98C636.475 395.328 638.694 395.653 641.374 395.955C644.076 396.147 647.008 396.042 650.17 395.641C653.354 395.129 656.57 394.167 659.818 392.755C663.176 391.364 666.346 389.194 669.327 386.245C672.308 383.296 675.013 379.435 677.442 374.664C680.002 369.805 682 363.749 683.435 356.498C684.826 349.466 685.352 343.062 685.011 337.286C684.801 331.422 683.484 326.252 681.059 321.776C678.765 317.212 675.342 313.452 670.789 310.496C666.258 307.43 660.367 305.179 653.116 303.744L626.747 298.525L608.678 389.826ZM613.7 282.242L654.077 290.233C672.206 293.821 685.246 301.197 693.198 312.362C701.149 323.526 703.255 338.557 699.515 357.454C697.558 367.342 694.72 375.914 691 383.17C687.303 390.316 682.625 396.07 676.966 400.43C671.33 404.681 664.669 407.473 656.984 408.806C649.299 410.139 640.567 409.838 630.789 407.903L590.412 399.912L613.7 282.242Z" fill="white"/>
<rect x="662" y="144.73" width="220" height="220" rx="110" transform="rotate(-11.9973 662 144.73)" fill="black" fill-opacity="0.9"/>
<path d="M769.786 242.189L817.277 232.097L820.071 245.243L772.579 255.335L769.786 242.189Z" fill="white"/>
<rect x="80.1992" y="422.641" width="687.506" height="220" rx="110" transform="rotate(2.04081 80.1992 422.641)" fill="black" fill-opacity="0.9"/>
<path d="M207.746 512.305C206.258 503.735 202.512 497.213 196.507 492.74C190.614 488.272 183.471 485.888 175.076 485.589C167.913 485.333 161.709 486.457 156.464 488.96C151.332 491.467 147.005 494.955 143.483 499.424C140.078 503.786 137.488 508.849 135.714 514.613C133.939 520.378 132.94 526.394 132.717 532.662C132.474 539.49 133.026 546.009 134.373 552.221C135.725 558.321 137.942 563.724 141.025 568.429C144.223 573.025 148.349 576.759 153.402 579.628C158.455 582.498 164.563 584.061 171.726 584.316C176.987 584.503 181.662 583.829 185.751 582.294C189.956 580.651 193.568 578.37 196.586 575.452C199.719 572.425 202.202 568.815 204.032 564.622C205.863 560.428 207.033 555.875 207.545 550.962L223.495 551.531C221.389 566.585 215.766 578.152 206.624 586.232C197.483 594.311 185.245 598.078 169.91 597.532C160.62 597.201 152.561 595.344 145.733 591.963C138.909 588.47 133.303 583.843 128.913 578.083C124.523 572.323 121.289 565.596 119.21 557.901C117.242 550.21 116.414 541.999 116.725 533.269C117.036 524.538 118.559 516.411 121.292 508.888C124.03 501.253 127.851 494.665 132.755 489.124C137.772 483.587 143.864 479.321 151.031 476.326C158.314 473.224 166.545 471.836 175.723 472.163C181.991 472.386 187.893 473.437 193.43 475.316C198.966 477.194 203.859 479.834 208.109 483.235C212.359 486.637 215.851 490.852 218.585 495.881C221.324 500.797 223.027 506.461 223.695 512.873L207.746 512.305ZM253.013 537.789C252.797 543.833 253.368 549.849 254.723 555.837C256.083 561.714 258.358 567.062 261.548 571.883C264.739 576.703 268.912 580.663 274.069 583.76C279.23 586.746 285.448 588.368 292.724 588.628C299.999 588.887 306.317 587.711 311.677 585.1C317.042 582.378 321.487 578.726 325.012 574.144C328.537 569.563 331.187 564.39 332.962 558.625C334.74 552.749 335.737 546.789 335.952 540.745C336.168 534.7 335.596 528.74 334.236 522.864C332.88 516.876 330.607 511.472 327.417 506.651C324.227 501.83 320.051 497.927 314.89 494.941C309.733 491.844 303.517 490.165 296.241 489.906C288.966 489.647 282.646 490.879 277.282 493.601C271.921 496.212 267.479 499.808 263.953 504.39C260.428 508.971 257.776 514.2 255.998 520.076C254.223 525.841 253.228 531.745 253.013 537.789ZM237.063 537.221C237.354 529.05 238.809 521.257 241.426 513.841C244.16 506.318 248.037 499.732 253.057 494.083C258.078 488.434 264.231 484.003 271.519 480.788C278.806 477.573 287.206 476.136 296.72 476.475C306.234 476.814 314.511 478.846 321.551 482.571C328.591 486.296 334.413 491.154 339.019 497.146C343.624 503.138 346.967 509.981 349.046 517.676C351.241 525.263 352.193 533.142 351.902 541.313C351.611 549.484 350.099 557.331 347.365 564.854C344.747 572.27 340.928 578.802 335.908 584.451C330.887 590.1 324.734 594.531 317.447 597.746C310.164 600.848 301.765 602.23 292.251 601.891C282.737 601.552 274.458 599.576 267.414 595.963C260.375 592.238 254.552 587.379 249.946 581.388C245.341 575.396 241.94 568.606 239.745 561.019C237.666 553.324 236.772 545.392 237.063 537.221ZM373.81 482.08L395.636 482.857L429.823 584.939L471.356 485.556L493.182 486.333L488.911 606.209L473.8 605.671L477.354 505.942L477.018 505.93L436.024 604.325L422.425 603.84L388.538 502.777L388.203 502.765L384.649 602.494L369.538 601.955L373.81 482.08ZM533.629 545.267L564.857 546.38C573.919 546.815 580.589 545.203 584.866 541.545C589.255 537.891 591.577 532.483 591.832 525.319C592.088 518.156 590.154 512.651 586.033 508.806C582.027 504.853 575.491 502.715 566.425 502.392L535.196 501.279L533.629 545.267ZM519.725 487.279L572.276 489.152C584.364 489.582 593.375 493.041 599.307 499.529C605.356 505.908 608.181 514.695 607.782 525.887C607.383 537.08 603.938 545.699 597.447 551.744C591.067 557.792 581.835 560.545 569.751 560.003L533.15 558.698L531.403 607.723L515.454 607.155L519.725 487.279ZM635.692 551.426C635.477 557.47 636.047 563.486 637.402 569.474C638.762 575.35 641.037 580.698 644.227 585.519C647.418 590.34 651.591 594.299 656.748 597.397C661.909 600.382 668.127 602.005 675.403 602.264C682.678 602.523 688.996 601.347 694.356 598.737C699.721 596.014 704.166 592.362 707.691 587.781C711.216 583.199 713.866 578.026 715.641 572.262C717.419 566.385 718.416 560.425 718.631 554.381C718.847 548.337 718.275 542.377 716.915 536.501C715.559 530.512 713.286 525.108 710.096 520.287C706.906 515.467 702.73 511.564 697.569 508.578C692.412 505.48 686.196 503.802 678.92 503.543C671.645 503.283 665.325 504.515 659.961 507.238C654.6 509.848 650.158 513.445 646.632 518.026C643.107 522.607 640.455 527.836 638.677 533.713C636.902 539.477 635.907 545.381 635.692 551.426ZM619.742 550.857C620.033 542.686 621.488 534.893 624.105 527.478C626.839 519.954 630.716 513.368 635.736 507.719C640.757 502.071 646.91 497.639 654.198 494.424C661.485 491.21 669.885 489.772 679.399 490.111C688.913 490.45 697.19 492.482 704.23 496.207C711.27 499.932 717.092 504.791 721.698 510.783C726.303 516.774 729.646 523.618 731.725 531.313C733.92 538.9 734.872 546.779 734.581 554.949C734.29 563.12 732.778 570.967 730.044 578.491C727.426 585.906 723.607 592.438 718.587 598.087C713.566 603.736 707.413 608.168 700.126 611.382C692.843 614.485 684.444 615.867 674.93 615.527C665.416 615.188 657.137 613.212 650.093 609.599C643.054 605.874 637.231 601.016 632.625 595.024C628.02 589.032 624.619 582.243 622.424 574.656C620.345 566.961 619.451 559.028 619.742 550.857Z" fill="white"/>
<rect x="376.433" y="599.638" width="514.061" height="220" rx="110" transform="rotate(11.975 376.433 599.638)" fill="black" fill-opacity="0.9"/>
<path d="M411.427 657.095L428.026 660.615L469.637 768.877L469.966 768.947L490.148 673.792L504.939 676.929L480.051 794.27L462.959 790.645L421.632 683.474L421.303 683.404L401.33 777.574L386.539 774.436L411.427 657.095ZM530.195 682.286L611.217 699.47L608.428 712.618L543.019 698.745L535.107 736.051L596.078 748.983L593.29 762.13L532.318 749.198L523.708 789.791L589.61 803.769L586.822 816.917L505.307 799.627L530.195 682.286ZM630.499 703.56L647.098 707.081L688.709 815.342L689.037 815.412L709.22 720.257L724.011 723.394L699.123 840.736L682.031 837.11L640.704 729.94L640.375 729.87L620.402 824.039L605.611 820.902L630.499 703.56ZM773.102 747.545L733.988 739.249L736.777 726.102L830.617 746.005L827.829 759.153L788.715 750.857L766.615 855.051L751.003 851.739L773.102 747.545Z" fill="white"/>
</svg>
