<svg width="940" height="836" viewBox="0 0 940 836" fill="none" xmlns="http://www.w3.org/2000/svg">
<rect x="26.5136" y="180.472" width="893.169" height="220" rx="110" transform="rotate(1.57867 26.5136 180.472)" fill="black" fill-opacity="0.8"/>
<path d="M121.401 247.513L81.4324 246.411L81.8027 232.977L177.694 235.619L177.324 249.054L137.355 247.953L134.421 354.424L118.467 353.985L121.401 247.513ZM190.998 235.986L206.952 236.426L205.531 287.982L268.675 289.722L270.096 238.166L286.05 238.606L282.745 358.512L266.791 358.072L268.305 303.157L205.161 301.417L203.647 356.332L187.693 355.892L190.998 235.986ZM312.194 239.326L368.621 240.881C380.04 241.196 388.864 244.24 395.091 250.014C401.43 255.791 404.466 263.549 404.197 273.29C403.997 280.567 402.142 286.902 398.632 292.296C395.234 297.692 389.868 301.298 382.536 303.112L382.526 303.448C385.978 304.216 388.747 305.412 390.831 307.038C393.026 308.667 394.709 310.618 395.879 312.892C397.164 315.056 398.049 317.489 398.535 320.192C399.133 322.897 399.559 325.71 399.815 328.63C399.959 331.547 400.045 334.519 400.074 337.544C400.102 340.57 400.3 343.545 400.668 346.468C401.036 349.391 401.574 352.207 402.284 354.916C403.109 357.516 404.333 359.846 405.957 361.908L388.155 361.417C387.07 360.155 386.332 358.454 385.943 356.314C385.666 354.178 385.507 351.821 385.466 349.242C385.428 346.552 385.395 343.694 385.366 340.668C385.337 337.643 385.083 334.666 384.604 331.74C384.236 328.817 383.752 326.058 383.151 323.465C382.553 320.759 381.553 318.435 380.15 316.492C378.75 314.436 376.89 312.816 374.57 311.632C372.253 310.336 369.135 309.634 365.216 309.526L326.255 308.452L324.843 359.672L308.889 359.233L312.194 239.326ZM359.877 295.933C363.571 296.035 367.106 295.852 370.48 295.385C373.854 294.918 376.794 293.935 379.3 292.435C381.922 290.827 383.997 288.699 385.527 286.052C387.171 283.296 388.054 279.735 388.174 275.369C388.341 269.323 386.797 264.351 383.543 260.452C380.289 256.553 374.912 254.5 367.411 254.293L327.778 253.201L326.625 295.017L359.877 295.933ZM427.158 242.495L509.951 244.776L509.581 258.211L442.742 256.369L441.691 294.491L503.996 296.208L503.625 309.643L441.321 307.926L440.178 349.406L507.52 351.262L507.15 364.697L423.854 362.401L427.158 242.495ZM529.822 245.324L612.615 247.606L612.245 261.041L545.406 259.199L544.355 297.32L606.66 299.037L606.29 312.472L543.985 310.755L542.842 352.235L610.184 354.091L609.814 367.526L526.518 365.23L529.822 245.324ZM630.535 349.442L649.176 349.956L648.663 368.597L630.022 368.083L630.535 349.442ZM737.707 341.135C737.596 345.166 736.87 349.123 735.531 353.008C734.303 356.896 732.247 360.368 729.361 363.426C726.591 366.375 722.885 368.738 718.242 370.514C713.714 372.182 708.092 372.924 701.374 372.739C690.179 372.43 681.638 369.281 675.753 363.293C669.871 357.193 667.087 348.433 667.402 337.013L667.605 329.624L683.559 330.064L683.42 335.102C683.325 338.572 683.517 341.771 683.996 344.697C684.476 347.623 685.358 350.169 686.643 352.333C688.04 354.5 689.953 356.234 692.382 357.533C694.926 358.724 698.157 359.373 702.076 359.481C709.353 359.681 714.389 357.859 717.184 354.015C720.091 350.174 721.636 344.95 721.818 338.345L724.234 250.682L740.187 251.122L737.707 341.135ZM834.701 288.852C834.043 280.206 831.079 273.906 825.81 269.952C820.656 265.888 813.937 263.742 805.652 263.514C802.293 263.421 798.981 263.666 795.716 264.248C792.451 264.831 789.509 265.87 786.891 267.366C784.385 268.866 782.311 270.938 780.669 273.581C779.143 276.116 778.326 279.343 778.218 283.262C778.116 286.956 779.096 290.008 781.159 292.418C783.336 294.719 786.196 296.646 789.738 298.201C793.393 299.758 797.501 301.104 802.064 302.238C806.63 303.26 811.248 304.396 815.919 305.645C820.703 306.897 825.368 308.37 829.915 310.064C834.465 311.646 838.496 313.774 842.008 316.448C845.631 319.124 848.453 322.451 850.472 326.429C852.603 330.409 853.587 335.366 853.423 341.299C853.247 347.681 851.641 353.127 848.603 357.637C845.681 362.038 841.941 365.632 837.382 368.42C832.827 371.095 827.733 372.972 822.101 374.049C816.578 375.241 811.074 375.762 805.588 375.611C798.87 375.426 792.512 374.41 786.513 372.564C780.625 370.721 775.433 368.057 770.935 364.572C766.552 360.978 763.09 356.513 760.548 351.177C758.121 345.732 757.008 339.371 757.208 332.093L772.323 332.51C772.184 337.548 773.015 341.941 774.817 345.688C776.733 349.326 779.226 352.364 782.296 354.801C785.478 357.242 789.181 359.08 793.405 360.317C797.628 361.554 801.979 362.234 806.457 362.358C810.04 362.456 813.632 362.219 817.233 361.646C820.946 361.076 824.28 360.048 827.234 358.561C830.191 356.961 832.604 354.787 834.472 352.037C836.341 349.288 837.335 345.73 837.455 341.364C837.57 337.221 836.543 333.832 834.374 331.195C832.318 328.561 829.464 326.41 825.813 324.741C822.277 322.962 818.227 321.506 813.665 320.372C809.102 319.238 804.428 318.101 799.641 316.961C794.97 315.711 790.358 314.352 785.805 312.882C781.254 311.3 777.163 309.338 773.53 306.997C770.012 304.548 767.183 301.5 765.043 297.856C763.017 294.103 762.08 289.483 762.231 283.997C762.398 277.952 763.773 272.78 766.356 268.481C768.943 264.071 772.29 260.522 776.397 257.834C780.62 255.037 785.325 253.038 790.512 251.836C795.814 250.526 801.208 249.946 806.694 250.097C812.852 250.267 818.542 251.152 823.763 252.753C828.985 254.353 833.512 256.775 837.344 260.018C841.289 263.264 844.314 267.324 846.42 272.2C848.642 276.967 849.773 282.657 849.815 289.268L834.701 288.852Z" fill="white"/>
<rect x="218.794" y="362.362" width="675.811" height="220" rx="110" transform="rotate(12.9583 218.794 362.362)" fill="black" fill-opacity="0.9"/>
<path d="M338.257 566.988L322.048 563.259L317.965 458.885L317.638 458.81L268.02 550.827L251.812 547.097L248.749 423.306L264.63 426.96L265.173 529.485L265.501 529.56L314.074 438.337L330.937 442.218L334.427 545.421L334.755 545.496L380.872 453.708L396.426 457.287L338.257 566.988ZM411.125 460.669L491.84 479.241L488.826 492.339L423.664 477.346L415.113 514.51L475.854 528.487L472.84 541.585L412.099 527.608L402.794 568.047L468.446 583.154L465.432 596.252L384.227 577.566L411.125 460.669ZM515.2 537.541L546.308 544.698C555.149 546.733 561.831 546.661 566.354 544.484C571.012 542.223 574.056 537.982 575.488 531.76C576.442 527.613 576.541 524.188 575.784 521.485C575.026 518.782 573.652 516.512 571.662 514.675C569.671 512.838 567.185 511.404 564.204 510.374C561.358 509.259 558.243 508.312 554.859 507.534L523.752 500.376L515.2 537.541ZM511.212 483.699L553.616 493.456C556.127 494.034 558.788 494.704 561.601 495.466C564.548 496.144 567.403 496.973 570.165 497.954C572.953 498.825 575.484 499.81 577.76 500.908C580.145 502.032 582.085 503.34 583.58 504.833C586.873 508.004 589.364 511.911 591.055 516.552C592.854 521.218 593.076 526.498 591.72 532.392C590.288 538.614 587.517 543.665 583.406 547.546C579.429 551.343 574.406 553.692 568.337 554.594L568.262 554.922C575.114 558.108 579.873 562.65 582.538 568.55C585.203 574.45 585.706 581.002 584.049 588.206C583.069 592.462 581.351 596.434 578.893 600.121C576.436 603.808 573.315 606.882 569.531 609.344C565.88 611.722 561.592 613.379 556.665 614.314C551.872 615.165 546.583 614.925 540.798 613.594L484.314 600.596L511.212 483.699ZM502.882 591.078L541.847 600.044C548.724 601.626 554.499 601.001 559.173 598.169C563.956 595.362 567.101 590.684 568.608 584.135C569.487 580.315 569.506 576.987 568.665 574.15C567.823 571.313 566.365 568.909 564.291 566.937C562.35 564.882 559.915 563.23 556.984 561.981C554.079 560.623 550.989 559.567 547.714 558.813L512.187 550.638L502.882 591.078ZM687.173 631.932C681.183 636.989 674.49 640.104 667.095 641.275C659.725 642.338 652.602 642.078 645.726 640.496C636.994 638.486 629.554 635.108 623.406 630.361C617.283 625.504 612.448 619.794 608.901 613.232C605.355 606.669 603.142 599.552 602.264 591.88C601.386 584.208 601.827 576.551 603.585 568.911C605.544 560.397 608.548 552.584 612.598 545.471C616.783 538.274 621.833 532.311 627.748 527.581C633.772 522.876 640.612 519.623 648.267 517.821C656.056 515.936 664.589 516.061 673.867 518.196C680.197 519.652 685.97 521.785 691.185 524.594C696.534 527.319 701.028 530.766 704.665 534.936C708.412 539.131 711.194 544.024 713.011 549.613C714.962 555.119 715.692 561.436 715.201 568.563L699.648 564.984C699.913 560.333 699.373 556.187 698.028 552.544C696.707 548.793 694.758 545.528 692.179 542.751C689.6 539.974 686.459 537.642 682.756 535.756C679.186 533.785 675.219 532.298 670.853 531.293C663.759 529.661 657.32 529.673 651.537 531.331C645.863 533.013 640.849 535.825 636.495 539.764C632.274 543.62 628.71 548.374 625.8 554.026C622.916 559.568 620.758 565.45 619.327 571.671C617.92 577.783 617.437 583.878 617.877 589.956C618.343 595.924 619.765 601.481 622.144 606.625C624.548 611.661 627.905 616.053 632.214 619.803C636.657 623.468 642.153 626.055 648.702 627.562C654.814 628.968 660.443 629.229 665.588 628.344C670.734 627.46 675.278 625.69 679.222 623.034C683.3 620.295 686.685 616.822 689.377 612.614C692.095 608.298 693.959 603.44 694.972 598.042L657.643 589.452L660.657 576.354L711.902 588.146L697.737 649.705L687.914 647.445L687.173 631.932ZM747.522 538.074L763.075 541.653L739.191 645.453L801.078 659.693L798.064 672.791L720.623 654.972L747.522 538.074Z" fill="white"/>
</svg>
