<svg width="940" height="940" viewBox="0 0 940 940" fill="none" xmlns="http://www.w3.org/2000/svg">
<g clip-path="url(#clip0_91_55)">
<rect x="10" y="338.659" width="893.169" height="220" rx="110" transform="rotate(-11.9973 10 338.659)" fill="#3A34A7"/>
<path d="M117.973 381.554L78.8627 389.865L76.069 376.719L169.902 356.779L172.695 369.925L133.585 378.236L155.725 482.422L140.114 485.739L117.973 381.554ZM182.92 354.012L198.531 350.695L209.252 401.144L271.04 388.014L260.319 337.564L275.931 334.247L300.865 451.579L285.253 454.896L273.834 401.16L212.046 414.29L223.465 468.026L207.854 471.344L182.92 354.012ZM301.514 328.81L356.729 317.076C367.903 314.702 377.195 315.59 384.603 319.74C392.121 323.868 396.893 330.697 398.919 340.228C400.432 347.349 400.116 353.943 397.97 360.01C395.934 366.053 391.564 370.817 384.863 374.302L384.932 374.631C388.468 374.567 391.44 375.08 393.847 376.172C396.364 377.24 398.458 378.741 400.129 380.676C401.886 382.478 403.318 384.636 404.424 387.149C405.64 389.638 406.715 392.272 407.649 395.051C408.474 397.853 409.255 400.721 409.993 403.656C410.731 406.59 411.622 409.435 412.665 412.191C413.709 414.946 414.894 417.557 416.219 420.023C417.631 422.357 419.368 424.335 421.431 425.957L404.012 429.659C402.66 428.687 401.544 427.206 400.663 425.218C399.892 423.206 399.184 420.952 398.539 418.456C397.871 415.85 397.168 413.079 396.43 410.145C395.691 407.21 394.746 404.377 393.593 401.645C392.549 398.89 391.431 396.322 390.238 393.942C389.022 391.452 387.504 389.428 385.684 387.868C383.841 386.199 381.653 385.061 379.119 384.454C376.563 383.738 373.367 383.787 369.533 384.602L331.408 392.704L342.059 442.824L326.448 446.142L301.514 328.81ZM361.152 372.643C364.767 371.874 368.16 370.867 371.33 369.621C374.5 368.375 377.127 366.729 379.212 364.683C381.382 362.504 382.9 359.949 383.765 357.017C384.717 353.952 384.739 350.283 383.831 346.011C382.574 340.095 379.906 335.624 375.828 332.597C371.75 329.571 366.041 328.838 358.701 330.397L319.919 338.639L328.614 379.557L361.152 372.643ZM414.009 304.904L495.024 287.688L497.818 300.834L432.415 314.733L440.342 352.036L501.308 339.08L504.102 352.226L443.135 365.182L451.761 405.772L517.657 391.768L520.451 404.915L438.943 422.236L414.009 304.904ZM514.469 283.555L595.484 266.339L598.278 279.486L532.874 293.384L540.802 330.687L601.768 317.731L604.562 330.878L543.595 343.834L552.221 384.423L618.117 370.42L620.911 383.566L539.403 400.887L514.469 283.555ZM636.808 361.124L655.049 357.247L658.925 375.488L640.685 379.364L636.808 361.124ZM739.035 327.892C739.874 331.836 740.097 335.853 739.707 339.944C739.426 344.011 738.243 347.869 736.156 351.519C734.155 355.036 731.107 358.202 727.011 361.019C723.001 363.703 717.71 365.744 711.136 367.141C700.181 369.469 691.14 368.413 684.014 363.974C676.864 359.424 672.102 351.563 669.727 340.388L668.19 333.158L683.802 329.84L684.849 334.77C685.571 338.166 686.509 341.23 687.662 343.962C688.815 346.694 690.27 348.961 692.027 350.763C693.893 352.542 696.16 353.778 698.826 354.471C701.578 355.031 704.872 354.904 708.706 354.089C715.827 352.576 720.295 349.622 722.109 345.229C724.033 340.813 724.309 335.373 722.935 328.909L704.706 243.129L720.318 239.811L739.035 327.892ZM821.047 254.301C818.378 246.052 814.018 240.624 807.968 238.016C802.004 235.276 794.969 234.768 786.862 236.49C783.575 237.189 780.413 238.204 777.376 239.537C774.339 240.869 771.723 242.57 769.529 244.639C767.445 246.685 765.915 249.186 764.94 252.141C764.052 254.963 764.015 258.292 764.829 262.126C765.598 265.741 767.267 268.478 769.837 270.336C772.494 272.062 775.727 273.264 779.535 273.943C783.453 274.599 787.763 274.943 792.464 274.974C797.142 274.896 801.898 274.916 806.732 275.034C811.675 275.128 816.556 275.465 821.374 276.044C826.168 276.514 830.586 277.636 834.627 279.411C838.778 281.163 842.301 283.734 845.198 287.126C848.204 290.495 850.323 295.083 851.557 300.889C852.884 307.134 852.601 312.804 850.707 317.901C848.899 322.866 846.107 327.237 842.33 331.017C838.53 334.687 834.019 337.707 828.798 340.076C823.709 342.531 818.481 344.329 813.112 345.47C806.539 346.867 800.12 347.372 793.855 346.986C787.699 346.577 782.027 345.206 776.836 342.874C771.733 340.409 767.319 336.881 763.595 332.291C759.958 327.568 757.383 321.646 755.87 314.525L770.659 311.382C771.707 316.312 773.546 320.387 776.177 323.606C778.894 326.693 782.031 329.061 785.587 330.709C789.253 332.335 793.284 333.253 797.68 333.464C802.076 333.675 806.465 333.315 810.847 332.383C814.352 331.638 817.788 330.565 821.154 329.162C824.63 327.737 827.629 325.954 830.151 323.815C832.651 321.567 834.486 318.887 835.656 315.775C836.827 312.664 836.959 308.972 836.051 304.7C835.189 300.646 833.395 297.592 830.669 295.538C828.052 293.461 824.773 292.039 820.832 291.274C816.977 290.376 812.698 289.911 807.997 289.879C803.296 289.848 798.485 289.84 793.565 289.855C788.731 289.737 783.928 289.498 779.157 289.138C774.363 288.668 769.925 287.722 765.844 286.299C761.85 284.743 758.384 282.446 755.448 279.406C752.599 276.233 750.603 271.962 749.463 266.594C748.205 260.678 748.328 255.328 749.83 250.543C751.309 245.649 753.729 241.413 757.091 237.836C760.54 234.126 764.644 231.079 769.404 228.693C774.25 226.175 779.357 224.345 784.726 223.204C790.751 221.924 796.49 221.449 801.941 221.779C807.393 222.109 812.362 223.4 816.848 225.653C821.444 227.882 825.338 231.119 828.53 235.364C831.808 239.477 834.244 244.741 835.837 251.159L821.047 254.301Z" fill="#FF3BC1"/>
<rect x="188.433" y="456.361" width="675.811" height="220" rx="110" transform="rotate(11.975 188.433 456.361)" fill="#FF4823"/>
<path d="M311.389 658.907L295.119 655.456L289.245 551.168L288.917 551.098L240.885 643.953L224.615 640.502L219.429 516.781L235.37 520.163L237.673 622.663L238.002 622.733L285.002 530.69L301.929 534.28L307.19 637.408L307.519 637.477L352.054 544.911L367.667 548.223L311.389 658.907ZM382.422 551.352L463.444 568.537L460.655 581.685L395.246 567.811L387.333 605.118L448.305 618.05L445.516 631.197L384.545 618.265L375.935 658.858L441.837 672.836L439.048 685.983L357.534 668.694L382.422 551.352ZM487.802 626.427L519.027 633.05C527.901 634.932 534.581 634.746 539.067 632.492C543.685 630.151 546.656 625.858 547.981 619.613C548.864 615.45 548.904 612.023 548.1 609.334C547.297 606.645 545.884 604.399 543.862 602.596C541.84 600.793 539.33 599.402 536.332 598.423C533.467 597.357 530.336 596.464 526.94 595.744L495.714 589.121L487.802 626.427ZM482.89 572.662L525.455 581.69C527.975 582.224 530.648 582.849 533.473 583.562C536.431 584.19 539.3 584.97 542.079 585.903C544.881 586.726 547.429 587.667 549.723 588.726C552.127 589.809 554.089 591.084 555.61 592.551C558.957 595.665 561.515 599.528 563.284 604.139C565.164 608.774 565.476 614.05 564.221 619.966C562.896 626.211 560.212 631.309 556.169 635.26C552.258 639.125 547.276 641.56 541.223 642.566L541.154 642.895C548.059 645.963 552.895 650.423 555.661 656.276C558.427 662.13 559.043 668.672 557.509 675.903C556.603 680.176 554.953 684.177 552.559 687.905C550.165 691.633 547.098 694.761 543.356 697.288C539.747 699.728 535.487 701.458 530.577 702.477C525.8 703.41 520.507 703.261 514.701 702.029L458.002 690.003L482.89 572.662ZM476.403 680.167L515.517 688.463C522.419 689.928 528.183 689.204 532.808 686.292C537.542 683.403 540.607 678.672 542.001 672.098C542.814 668.264 542.776 664.935 541.886 662.113C540.996 659.291 539.497 656.912 537.389 654.977C535.413 652.955 532.95 651.345 529.998 650.146C527.07 648.838 523.962 647.836 520.676 647.139L485.013 639.574L476.403 680.167ZM661.369 717.853C655.466 723.013 648.828 726.242 641.454 727.54C634.103 728.729 626.977 728.591 620.074 727.127C611.309 725.268 603.812 722.018 597.584 717.376C591.378 712.625 586.446 707 582.788 700.499C579.129 693.998 576.795 686.92 575.785 679.264C574.776 671.608 575.084 663.945 576.711 656.276C578.524 647.73 581.394 639.866 585.321 632.685C589.381 625.417 594.328 619.368 600.161 614.537C606.104 609.73 612.887 606.36 620.51 604.427C628.266 602.408 636.8 602.387 646.113 604.362C652.467 605.71 658.276 607.743 663.538 610.462C668.933 613.095 673.485 616.465 677.194 620.572C681.012 624.702 683.877 629.546 685.79 635.103C687.835 640.575 688.673 646.878 688.305 654.013L672.692 650.701C672.878 646.047 672.267 641.91 670.859 638.291C669.475 634.562 667.469 631.332 664.843 628.6C662.217 625.867 659.036 623.59 655.301 621.767C651.699 619.858 647.707 618.439 643.324 617.509C636.202 615.999 629.765 616.122 624.011 617.878C618.367 619.658 613.402 622.555 609.116 626.569C604.963 630.497 601.48 635.311 598.668 641.011C595.879 646.602 593.823 652.521 592.498 658.766C591.197 664.901 590.818 671.003 591.363 677.072C591.931 683.032 593.448 688.563 595.915 693.666C598.405 698.659 601.836 702.994 606.209 706.669C610.714 710.258 616.254 712.749 622.828 714.144C628.963 715.445 634.596 715.609 639.725 714.636C644.855 713.664 649.368 711.816 653.266 709.093C657.297 706.284 660.622 702.754 663.241 698.5C665.884 694.138 667.665 689.249 668.584 683.834L631.114 675.886L633.903 662.739L685.342 673.649L672.236 735.443L662.375 733.351L661.369 717.853ZM720.098 622.974L735.71 626.285L713.611 730.479L775.733 743.655L772.944 756.803L695.209 740.315L720.098 622.974Z" fill="#42231B"/>
</g>
<defs>
<clipPath id="clip0_91_55">
<rect width="940" height="940" fill="white"/>
</clipPath>
</defs>
</svg>
