<svg width="586" height="605" viewBox="0 0 586 605" fill="none" xmlns="http://www.w3.org/2000/svg">
<rect x="130.352" y="79.2226" width="436.35" height="220" rx="110" transform="rotate(17.9418 130.352 79.2226)" fill="black" fill-opacity="0.9"/>
<path d="M188.718 277.772L171.456 272.182L168.29 145.074L184.593 150.352L185.163 259.845L185.483 259.948L250.443 171.674L266.266 176.798L188.718 277.772ZM345.97 283.129C341.243 297.727 333.8 307.443 323.641 312.277C313.516 317.004 301.262 317.038 286.877 312.381C272.173 307.619 261.786 300.43 255.718 290.813C249.79 281.124 249.293 268.661 254.227 253.424L277.826 180.541L293.01 185.457L269.411 258.34C266.099 268.569 266.297 277.227 270.006 284.315C273.75 291.295 280.736 296.442 290.966 299.754C300.662 302.894 308.859 302.664 315.558 299.064C322.398 295.392 327.474 288.442 330.786 278.213L354.385 205.33L369.569 210.247L345.97 283.129ZM393.812 218.097L472.608 243.611L468.468 256.397L404.855 235.8L393.108 272.081L452.405 291.281L448.264 304.068L388.967 284.867L376.185 324.346L440.276 345.098L436.136 357.885L356.86 332.215L393.812 218.097Z" fill="white"/>
<rect y="389.7" width="327.117" height="220" rx="110" transform="rotate(-11.9973 0 389.7)" fill="black" fill-opacity="0.8"/>
<path d="M100.437 524.022L118.678 520.146L122.554 538.387L104.314 542.263L100.437 524.022ZM202.664 490.791C203.503 494.735 203.726 498.752 203.336 502.842C203.056 506.91 201.872 510.768 199.785 514.418C197.784 517.934 194.736 521.101 190.64 523.918C186.63 526.602 181.339 528.643 174.765 530.039C163.81 532.367 154.769 531.312 147.643 526.872C140.493 522.323 135.731 514.461 133.356 503.287L131.819 496.056L147.431 492.739L148.478 497.668C149.2 501.065 150.138 504.129 151.291 506.861C152.444 509.593 153.899 511.86 155.656 513.662C157.522 515.441 159.789 516.677 162.455 517.37C165.208 517.93 168.501 517.802 172.335 516.987C179.456 515.474 183.924 512.521 185.738 508.128C187.663 503.711 187.938 498.271 186.564 491.808L168.335 406.027L183.947 402.71L202.664 490.791ZM284.676 417.2C282.007 408.951 277.647 403.522 271.597 400.915C265.633 398.175 258.598 397.666 250.491 399.389C247.204 400.087 244.042 401.103 241.005 402.435C237.968 403.768 235.352 405.469 233.158 407.538C231.074 409.584 229.544 412.084 228.569 415.04C227.681 417.862 227.644 421.19 228.459 425.025C229.227 428.64 230.896 431.377 233.467 433.235C236.123 434.96 239.356 436.163 243.164 436.842C247.082 437.498 251.392 437.842 256.093 437.873C260.771 437.795 265.527 437.815 270.361 437.933C275.304 438.027 280.185 438.364 285.003 438.943C289.797 439.413 294.215 440.535 298.256 442.31C302.407 444.061 305.93 446.633 308.827 450.025C311.833 453.394 313.952 457.981 315.186 463.788C316.513 470.032 316.23 475.703 314.336 480.8C312.528 485.764 309.736 490.136 305.959 493.916C302.159 497.586 297.648 500.605 292.427 502.974C287.338 505.43 282.11 507.228 276.741 508.369C270.168 509.766 263.749 510.271 257.484 509.885C251.328 509.475 245.656 508.105 240.465 505.773C235.362 503.308 230.948 499.78 227.224 495.19C223.587 490.467 221.012 484.545 219.499 477.424L234.288 474.281C235.336 479.211 237.175 483.285 239.806 486.505C242.523 489.591 245.66 491.959 249.216 493.608C252.882 495.233 256.913 496.152 261.309 496.362C265.705 496.573 270.094 496.213 274.476 495.282C277.981 494.537 281.417 493.463 284.783 492.061C288.259 490.635 291.258 488.853 293.78 486.714C296.28 484.465 298.115 481.785 299.285 478.674C300.456 475.563 300.588 471.871 299.68 467.598C298.818 463.545 297.024 460.491 294.298 458.437C291.681 456.359 288.402 454.938 284.461 454.172C280.606 453.274 276.328 452.809 271.626 452.778C266.925 452.746 262.114 452.738 257.194 452.753C252.36 452.635 247.557 452.397 242.786 452.036C237.992 451.567 233.554 450.62 229.473 449.198C225.479 447.642 222.013 445.344 219.077 442.304C216.228 439.131 214.232 434.861 213.092 429.492C211.834 423.577 211.957 418.226 213.459 413.441C214.938 408.547 217.359 404.312 220.72 400.735C224.169 397.025 228.273 393.977 233.033 391.592C237.879 389.073 242.986 387.244 248.355 386.103C254.38 384.822 260.119 384.347 265.57 384.677C271.022 385.007 275.991 386.298 280.477 388.551C285.073 390.78 288.967 394.018 292.159 398.263C295.437 402.375 297.873 407.64 299.466 414.057L284.676 417.2Z" fill="white"/>
</svg>
