<svg width="667" height="545" viewBox="0 0 667 545" fill="none" xmlns="http://www.w3.org/2000/svg">
<rect x="91.9606" y="103.292" width="547.284" height="220" rx="110" transform="rotate(13.1066 91.9606 103.292)" fill="black" fill-opacity="0.9"/>
<path d="M210.228 306.915L194.029 303.144L190.216 198.76L189.889 198.684L140.033 290.572L123.834 286.8L121.092 163.002L136.963 166.697L137.242 269.223L137.569 269.299L186.378 178.202L203.231 182.126L206.454 285.338L206.782 285.414L253.136 193.745L268.68 197.364L210.228 306.915ZM283.371 200.785L364.037 219.566L360.99 232.656L295.867 217.494L287.219 254.636L347.924 268.77L344.876 281.86L284.172 267.726L274.762 308.141L340.375 323.418L337.327 336.508L256.17 317.612L283.371 200.785ZM387.247 277.926L418.336 285.164C427.171 287.221 433.854 287.167 438.383 285.002C443.046 282.753 446.102 278.519 447.549 272.301C448.515 268.156 448.622 264.732 447.872 262.027C447.121 259.322 445.753 257.049 443.767 255.207C441.781 253.364 439.299 251.924 436.321 250.885C433.478 249.763 430.365 248.809 426.983 248.021L395.895 240.783L387.247 277.926ZM383.398 224.074L425.777 233.941C428.286 234.525 430.946 235.202 433.756 235.971C436.702 236.657 439.554 237.494 442.314 238.481C445.1 239.36 447.629 240.351 449.901 241.455C452.283 242.585 454.22 243.898 455.711 245.395C458.996 248.575 461.477 252.488 463.156 257.133C464.943 261.804 465.151 267.085 463.779 272.975C462.332 279.193 459.547 284.237 455.426 288.107C451.44 291.894 446.411 294.231 440.34 295.117L440.264 295.444C447.108 298.648 451.854 303.203 454.504 309.109C457.153 315.016 457.64 321.569 455.964 328.769C454.973 333.023 453.245 336.99 450.778 340.671C448.311 344.351 445.182 347.417 441.391 349.87C437.735 352.238 433.442 353.884 428.513 354.806C423.717 355.644 418.429 355.391 412.648 354.045L356.198 340.901L383.398 224.074ZM374.79 331.431L413.732 340.497C420.604 342.098 426.381 341.488 431.062 338.668C435.853 335.873 439.01 331.203 440.534 324.659C441.423 320.841 441.45 317.512 440.616 314.673C439.783 311.834 438.331 309.426 436.261 307.449C434.326 305.389 431.895 303.73 428.967 302.474C426.065 301.108 422.978 300.044 419.706 299.282L384.199 291.016L374.79 331.431ZM506.546 306.047C507.066 306.283 507.544 306.452 507.98 306.553C508.526 306.68 509.071 306.807 509.617 306.934L512.562 307.62C515.507 308.306 518.378 308.572 521.173 308.418C524.104 308.18 526.728 307.526 529.047 306.456C531.501 305.302 533.607 303.665 535.366 301.545C537.124 299.424 538.359 296.837 539.07 293.783C540.518 287.565 539.634 282.472 536.418 278.503C533.227 274.425 528.687 271.701 522.797 270.329C519.088 269.466 515.65 269.413 512.484 270.171C509.452 270.845 506.742 272.111 504.355 273.97C502.076 275.855 500.145 278.222 498.561 281.074C496.977 283.925 495.792 287.041 495.004 290.423L481.096 287.184C482.61 281.672 484.663 276.803 487.257 272.577C489.96 268.376 493.165 264.983 496.872 262.396C500.579 259.809 504.831 258.097 509.626 257.258C514.53 256.445 519.872 256.712 525.654 258.058C530.672 259.226 535.155 260.96 539.105 263.259C543.189 265.475 546.52 268.206 549.099 271.451C551.679 274.697 553.384 278.486 554.215 282.819C555.155 287.178 555.003 292.03 553.758 297.375C552.539 302.611 549.933 306.891 545.939 310.216C541.945 313.541 537.416 315.707 532.352 316.712L532.275 317.04C539.01 320.218 543.471 324.764 545.659 330.678C547.956 336.618 548.292 343.078 546.667 350.059C545.321 355.841 543.036 360.714 539.813 364.678C536.725 368.559 533.038 371.553 528.752 373.66C524.467 375.767 519.692 377.013 514.428 377.397C509.298 377.697 504.006 377.213 498.552 375.943C492.661 374.571 487.507 372.509 483.088 369.755C478.669 367.001 475.138 363.649 472.493 359.698C469.873 355.639 468.182 351.048 467.42 345.925C466.766 340.828 467.193 335.293 468.699 329.319L482.607 332.557C481.072 340.134 481.819 346.805 484.847 352.57C487.9 358.226 493.408 361.981 501.371 363.835C504.752 364.622 508.085 364.88 511.368 364.61C514.676 364.23 517.691 363.38 520.414 362.059C523.162 360.628 525.507 358.702 527.451 356.28C529.53 353.774 530.975 350.776 531.788 347.285C532.626 343.685 532.708 340.37 532.034 337.338C531.386 334.197 530.186 331.445 528.436 329.083C526.712 326.611 524.424 324.584 521.573 323C518.856 321.333 515.753 320.092 512.262 319.28C509.317 318.594 506.497 318.11 503.803 317.828L506.546 306.047Z" fill="white"/>
</svg>
